<svg width="44" height="44" viewBox="0 0 64 64" fill="none" xmlns="http://www.w3.org/2000/svg">
<path fill-rule="evenodd" clip-rule="evenodd" d="M32.0603 0L58.9594 15.5764V46.7291L32.0603 62.3054L5.16129 46.7291V15.5764L32.0603 0Z" fill="url(#paint0_linear)"/>
<path fill-rule="evenodd" clip-rule="evenodd" d="M32.0603 5.6848L54.0507 18.4188V43.8867L32.0603 56.6206L10.0698 43.8867V18.4188L32.0603 5.6848Z" fill="url(#paint1_linear)"/>
<path fill-rule="evenodd" clip-rule="evenodd" d="M32.0603 5.5107L54.1031 18.3851V44.0856L32.0603 56.6099L10.0175 44.0856V18.3923L32.0603 5.5107ZM10.5708 18.7076V43.5978L32.0603 56.0417L53.5497 43.5978V18.7076L32.0603 6.2637L10.5708 18.7076Z" fill="url(#paint2_linear)"/>
<g filter="url(#filter0_i)">
<path fill-rule="evenodd" clip-rule="evenodd" d="M32.0603 8.6409L51.4983 19.8968V42.4086L32.0603 53.6645L12.6223 42.4086V19.8968L32.0603 8.6409Z" fill="url(#paint3_angular)"/>
</g>
<path fill-rule="evenodd" clip-rule="evenodd" d="M31.8336 8.6409L51.2716 19.8968V42.4086L31.8336 53.6645L12.3956 42.4086V19.8968L31.8336 8.6409Z" fill="url(#paint4_linear)"/>
<path opacity="0.153065" fill-rule="evenodd" clip-rule="evenodd" d="M31.8336 8.6409V31.1245L51.1785 19.8827L31.8336 8.6409Z" fill="url(#paint5_linear)"/>
<path opacity="0.546573" fill-rule="evenodd" clip-rule="evenodd" d="M31.8336 31.1527L51.1785 42.466V19.7831L31.8336 31.1527Z" fill="#454545"/>
<path opacity="0.3" fill-rule="evenodd" clip-rule="evenodd" d="M31.9075 30.9903L12.5626 42.466V19.8827L31.9075 30.9903Z" fill="#656565"/>
<path opacity="0.3" fill-rule="evenodd" clip-rule="evenodd" d="M31.8336 31.1527L31.8336 53.6645L51.1785 42.466L31.8336 31.1527Z" fill="#1B1B1B"/>
<path fill-rule="evenodd" clip-rule="evenodd" d="M3.26721 14.6484L15.3362 21.3904L9.50487 11.3696L3.26721 14.6484Z" fill="url(#paint6_linear)"/>
<rect x="5.19727" y="21.2331" width="7.25497" height="4.09306" fill="url(#paint7_linear)"/>
<path fill-rule="evenodd" clip-rule="evenodd" d="M3.26721 21.3904H15.3362L3.26721 14.6484L3.26721 21.3904Z" fill="url(#paint8_linear)"/>
<path fill-rule="evenodd" clip-rule="evenodd" d="M60.8535 14.6484L48.7845 21.3904L54.6159 11.3696L60.8535 14.6484Z" fill="url(#paint9_linear)"/>
<rect width="7.25497" height="4.09306" transform="matrix(-1 0 0 1 58.9235 21.2331)" fill="url(#paint10_linear)"/>
<path fill-rule="evenodd" clip-rule="evenodd" d="M60.8535 21.3904H48.7845L60.8535 14.6484L60.8535 21.3904Z" fill="url(#paint11_linear)"/>
<path fill-rule="evenodd" clip-rule="evenodd" d="M29.9539 55.4648L24.0392 52.0728L22.0848 56.2791L27.4137 59.4685L29.9539 55.4648Z" fill="url(#paint12_linear)"/>
<path fill-rule="evenodd" clip-rule="evenodd" d="M25.4855 60.0964L32.0603 64V50.5839L25.4855 60.0964Z" fill="url(#paint13_linear)"/>
<path fill-rule="evenodd" clip-rule="evenodd" d="M38.8618 60.0964L32.0603 64V50.5839L38.8618 60.0964Z" fill="url(#paint14_linear)"/>
<path fill-rule="evenodd" clip-rule="evenodd" d="M25.4855 60.0964L32.0603 50.5839L38.8618 60.0964L32.1169 50.9452L32.1736 64L31.9992 50.9452L25.4855 60.0964Z" fill="white"/>
<g filter="url(#filter1_d)">
<path fill-rule="evenodd" clip-rule="evenodd" d="M20.271 20.6927L21.4672 22.9758V32.6517L20.271 33.4384V20.6927Z" fill="url(#paint15_linear)"/>
</g>
<path fill-rule="evenodd" clip-rule="evenodd" d="M36.663 41.7115L36.0338 38.9719L37.5842 40.3417L43.6313 33.4711V20.6927L39.0466 24.0111L39.2114 29.9444L34.6445 33.4711L33.9872 31.2021H35.751L35.1555 30.211L32.3138 29.3788L30.3355 30.211L29.5564 33.4711L24.9577 30.211V24.1954L20.271 20.6927V33.4711L26.5355 40.3417L28.1201 38.9719L27.3684 41.7115L32.3138 46.8522L36.663 41.7115Z" fill="url(#paint16_linear)"/>
<path fill-rule="evenodd" clip-rule="evenodd" d="M43.6438 20.6927L42.6292 22.7974V32.6824L43.6438 33.4711V20.6927Z" fill="url(#paint17_linear)"/>
<path fill-rule="evenodd" clip-rule="evenodd" d="M21.3091 22.8964L24.0287 24.6973L24.9577 24.1954L20.271 20.6927L21.3091 22.8964Z" fill="#FEFDEF"/>
<path fill-rule="evenodd" clip-rule="evenodd" d="M42.6293 22.7974L39.9756 24.513L39.0466 24.0111L43.6467 20.6927L42.6293 22.7974Z" fill="#FEFDEF"/>
<path fill-rule="evenodd" clip-rule="evenodd" d="M20.271 33.4711L26.5355 40.3417L26.865 38.4737L21.375 32.6824L20.271 33.4711Z" fill="url(#paint18_linear)"/>
<path fill-rule="evenodd" clip-rule="evenodd" d="M43.6758 33.4711L37.5842 40.3417L37.2188 38.7537L42.6293 32.6824L43.6758 33.4711Z" fill="url(#paint19_linear)"/>
<path fill-rule="evenodd" clip-rule="evenodd" d="M26.865 38.4737L28.1201 38.9719L26.5355 40.3417L26.865 38.4737Z" fill="url(#paint20_linear)"/>
<path fill-rule="evenodd" clip-rule="evenodd" d="M37.2241 38.75L36.0342 39.0043L37.5842 40.3417L37.2241 38.75Z" fill="url(#paint21_linear)"/>
<path fill-rule="evenodd" clip-rule="evenodd" d="M24.0287 24.6973V30.9235L24.9577 30.211V24.1954L24.0287 24.6973Z" fill="url(#paint22_linear)"/>
<path fill-rule="evenodd" clip-rule="evenodd" d="M39.9756 24.513L40.194 30.5478L39.265 29.9444L39.0466 24.0111L39.9756 24.513Z" fill="url(#paint23_linear)"/>
<path fill-rule="evenodd" clip-rule="evenodd" d="M29.5565 33.4711L29.9549 35.1824L24.0287 30.9235L24.9577 30.211L29.5565 33.4711Z" fill="url(#paint24_linear)"/>
<path fill-rule="evenodd" clip-rule="evenodd" d="M34.6445 33.4711L34.3509 35.1824L40.194 30.5478L39.2115 29.9444L34.6445 33.4711Z" fill="url(#paint25_linear)"/>
<path fill-rule="evenodd" clip-rule="evenodd" d="M30.3355 30.211L31.0243 30.9235L29.9549 35.1824L29.5564 33.4711L30.3355 30.211Z" fill="url(#paint26_linear)"/>
<path fill-rule="evenodd" clip-rule="evenodd" d="M34.0107 31.2149L33.1999 31.2149L34.3509 35.1824L34.6445 33.4711L34.0107 31.2149Z" fill="url(#paint27_linear)"/>
<path fill-rule="evenodd" clip-rule="evenodd" d="M31.0244 30.9235L32.3139 30.211V29.3788L30.3356 30.211L31.0244 30.9235Z" fill="white"/>
<path fill-rule="evenodd" clip-rule="evenodd" d="M34.6445 30.714L32.2786 30.2447L32.3138 29.3788L35.1066 30.1848L34.6445 30.714Z" fill="#FDFBDC"/>
<path fill-rule="evenodd" clip-rule="evenodd" d="M34.6445 30.714L35.1066 30.1512L35.7643 31.2149L34.6445 30.714Z" fill="#FDBC52"/>
<path fill-rule="evenodd" clip-rule="evenodd" d="M27.3684 41.7115L28.8153 40.6687L28.1201 38.9719L27.3684 41.7115Z" fill="#FFDF9B"/>
<path fill-rule="evenodd" clip-rule="evenodd" d="M37.2187 41.7439L35.7717 40.701L36.0341 39.0043C36.0341 39.0043 36.8377 40.8303 37.2187 41.7115C37.5997 42.5926 37.2187 41.7439 37.2187 41.7439Z" fill="#FFDF9B"/>
<path fill-rule="evenodd" clip-rule="evenodd" d="M28.8153 40.6687L32.3138 44.0548V46.8522L27.3684 41.7115L28.8153 40.6687Z" fill="url(#paint28_linear)"/>
<path fill-rule="evenodd" clip-rule="evenodd" d="M35.7771 40.7483L32.2786 44.1344V46.9318L37.224 41.7911L35.7771 40.7483Z" fill="url(#paint29_linear)"/>
<path fill-rule="evenodd" clip-rule="evenodd" d="M20.271 20.6927L21.4699 22.9835V32.6924L20.271 33.4818V20.6927Z" fill="url(#paint30_linear)"/>
<path fill-rule="evenodd" clip-rule="evenodd" d="M29.8532 19.1618L29.8726 19.1647L29.9703 19.1314L28.5112 20.6235L28.4792 20.6126L28.4785 20.6133L28.5112 20.6235L28.5943 21.4176L28.8072 22.6873L28.7106 22.6354L28.7196 22.6483L28.1331 22.3249L27.0001 21.7158L25.193 22.6873L25.2019 22.6341L25.1761 22.6483L25.2067 22.6056L25.2069 22.6044L25.1761 22.6483L25.1843 22.5939L25.1443 22.6483L25.1846 22.5916L25.4855 20.5791L25.4869 20.5786L24.5003 19.5952L24.0696 19.1707L24.0297 19.1575L24.0688 19.17L24.0297 19.1314L24.1274 19.1647L24.1303 19.1643L24.0297 19.1314L25.0617 19.0259L26.0965 18.8722L26.9478 17.1084V17L26.9479 17.0051V17L26.9742 17.0536L27.0001 17L27.0258 17.0533L27.0521 17V17.1077L27.9037 18.8722L28.9779 19.0318L29.9372 19.1314L29.8495 19.1613L29.8528 19.1618L29.8659 19.1575L29.8532 19.1618Z" fill="#FDE47B"/>
<path fill-rule="evenodd" clip-rule="evenodd" d="M27.0526 17V20.1673L26.1052 18.8861L27.0526 17Z" fill="url(#paint31_linear)"/>
<path fill-rule="evenodd" clip-rule="evenodd" d="M26.9474 17V20.1673L27.8948 18.8861L26.9474 17Z" fill="url(#paint32_linear)"/>
<path fill-rule="evenodd" clip-rule="evenodd" d="M27.8948 18.9004L26.9644 20.1145L29.9666 19.1115L27.8948 18.9004Z" fill="url(#paint33_linear)"/>
<path fill-rule="evenodd" clip-rule="evenodd" d="M26.1053 18.9004L26.9644 20.0617L24 19.1115L26.1053 18.9004Z" fill="url(#paint34_linear)"/>
<path fill-rule="evenodd" clip-rule="evenodd" d="M30 19.1115L27.0526 20.0969L28.5263 20.5896L30 19.1115Z" fill="url(#paint35_linear)"/>
<path fill-rule="evenodd" clip-rule="evenodd" d="M24 19.1115L26.9474 20.0969L25.4737 20.536L24 19.1115Z" fill="url(#paint36_linear)"/>
<path fill-rule="evenodd" clip-rule="evenodd" d="M28.5263 20.5896L26.9644 20.1145L28.7369 22.5629L28.5263 20.5896Z" fill="url(#paint37_linear)"/>
<path fill-rule="evenodd" clip-rule="evenodd" d="M25.4704 20.5456L26.9644 20.0617L25.1579 22.5955L25.4704 20.5456Z" fill="url(#paint38_linear)"/>
<path fill-rule="evenodd" clip-rule="evenodd" d="M28.7369 22.5955L26.9474 20.0617V21.6277L28.7369 22.5955Z" fill="url(#paint39_linear)"/>
<path fill-rule="evenodd" clip-rule="evenodd" d="M25.1579 22.5955L26.9644 20.1145L26.9474 21.6277L25.1579 22.5955Z" fill="url(#paint40_linear)"/>
<path fill-rule="evenodd" clip-rule="evenodd" d="M26.9662 20.1381L25.1258 22.5955L26.9226 20.1145L25.5094 20.5711L25.4796 20.564L26.9149 20.0856L24 19.1373L26.9216 20.0511L26.7085 19.7574L26.9474 20.0297V17L26.9827 20.0383L27.2955 19.6756L27.0136 20.0609L29.8947 19.1373L27.0526 20.0969L28.3701 20.564L27.0136 20.1381L28.7689 22.5955L26.9662 20.1381Z" fill="white"/>
<path fill-rule="evenodd" clip-rule="evenodd" d="M39.8532 19.1618L39.8726 19.1647L39.9703 19.1314L38.5112 20.6235L38.4792 20.6126L38.4785 20.6133L38.5112 20.6235L38.5943 21.4176L38.8072 22.6873L38.7106 22.6354L38.7196 22.6483L38.1331 22.3249L37.0001 21.7158L35.193 22.6873L35.2019 22.6341L35.1761 22.6483L35.2067 22.6056L35.2069 22.6044L35.1761 22.6483L35.1843 22.5939L35.1443 22.6483L35.1846 22.5916L35.4855 20.5791L35.4869 20.5786L34.5003 19.5952L34.0696 19.1707L34.0297 19.1575L34.0688 19.17L34.0297 19.1314L34.1274 19.1647L34.1303 19.1643L34.0297 19.1314L35.0617 19.0259L36.0965 18.8722L36.9478 17.1084V17L36.9479 17.0051V17L36.9742 17.0536L37.0001 17L37.0258 17.0533L37.0521 17V17.1077L37.9037 18.8722L38.9779 19.0318L39.9372 19.1314L39.8495 19.1613L39.8528 19.1618L39.8659 19.1575L39.8532 19.1618Z" fill="#FDE47B"/>
<path fill-rule="evenodd" clip-rule="evenodd" d="M37.0526 17V20.1673L36.1052 18.8861L37.0526 17Z" fill="url(#paint41_linear)"/>
<path fill-rule="evenodd" clip-rule="evenodd" d="M36.9474 17V20.1673L37.8948 18.8861L36.9474 17Z" fill="url(#paint42_linear)"/>
<path fill-rule="evenodd" clip-rule="evenodd" d="M37.8948 18.9004L36.9644 20.1145L39.9666 19.1115L37.8948 18.9004Z" fill="url(#paint43_linear)"/>
<path fill-rule="evenodd" clip-rule="evenodd" d="M36.1053 18.9004L36.9644 20.0617L34 19.1115L36.1053 18.9004Z" fill="url(#paint44_linear)"/>
<path fill-rule="evenodd" clip-rule="evenodd" d="M40 19.1115L37.0526 20.0969L38.5263 20.5896L40 19.1115Z" fill="url(#paint45_linear)"/>
<path fill-rule="evenodd" clip-rule="evenodd" d="M34 19.1115L36.9474 20.0969L35.4737 20.536L34 19.1115Z" fill="url(#paint46_linear)"/>
<path fill-rule="evenodd" clip-rule="evenodd" d="M38.5263 20.5896L36.9644 20.1145L38.7369 22.5629L38.5263 20.5896Z" fill="url(#paint47_linear)"/>
<path fill-rule="evenodd" clip-rule="evenodd" d="M35.4704 20.5456L36.9644 20.0617L35.1579 22.5955L35.4704 20.5456Z" fill="url(#paint48_linear)"/>
<path fill-rule="evenodd" clip-rule="evenodd" d="M38.7369 22.5955L36.9474 20.0617V21.6277L38.7369 22.5955Z" fill="url(#paint49_linear)"/>
<path fill-rule="evenodd" clip-rule="evenodd" d="M35.1579 22.5955L36.9644 20.1145L36.9474 21.6277L35.1579 22.5955Z" fill="url(#paint50_linear)"/>
<path fill-rule="evenodd" clip-rule="evenodd" d="M36.9662 20.1381L35.1258 22.5955L36.9226 20.1145L35.5094 20.5711L35.4796 20.564L36.9149 20.0856L34 19.1373L36.9216 20.0511L36.7085 19.7574L36.9474 20.0297V17L36.9827 20.0383L37.2955 19.6756L37.0136 20.0609L39.8947 19.1373L37.0526 20.0969L38.3701 20.564L37.0136 20.1381L38.7689 22.5955L36.9662 20.1381Z" fill="white"/>
<path fill-rule="evenodd" clip-rule="evenodd" d="M34.8532 14.1618L34.8726 14.1647L34.9703 14.1314L33.5112 15.6235L33.4792 15.6126L33.4785 15.6133L33.5112 15.6235L33.5943 16.4176L33.8072 17.6873L33.7106 17.6354L33.7196 17.6483L33.1331 17.3249L32.0001 16.7158L30.193 17.6873L30.2019 17.6341L30.1761 17.6483L30.2067 17.6056L30.2069 17.6044L30.1761 17.6483L30.1843 17.5939L30.1443 17.6483L30.1846 17.5916L30.4855 15.5791L30.4869 15.5786L29.5003 14.5952L29.0696 14.1707L29.0297 14.1575L29.0688 14.17L29.0297 14.1314L29.1274 14.1647L29.1303 14.1643L29.0297 14.1314L30.0617 14.0259L31.0965 13.8722L31.9478 12.1084V12L31.9479 12.0051V12L31.9742 12.0536L32.0001 12L32.0258 12.0533L32.0521 12V12.1077L32.9037 13.8722L33.9779 14.0318L34.9372 14.1314L34.8495 14.1613L34.8528 14.1618L34.8659 14.1575L34.8532 14.1618Z" fill="#FDE47B"/>
<path fill-rule="evenodd" clip-rule="evenodd" d="M32.0526 12V15.1673L31.1052 13.8861L32.0526 12Z" fill="url(#paint51_linear)"/>
<path fill-rule="evenodd" clip-rule="evenodd" d="M31.9474 12V15.1673L32.8948 13.8861L31.9474 12Z" fill="url(#paint52_linear)"/>
<path fill-rule="evenodd" clip-rule="evenodd" d="M32.8948 13.9004L31.9644 15.1145L34.9666 14.1115L32.8948 13.9004Z" fill="url(#paint53_linear)"/>
<path fill-rule="evenodd" clip-rule="evenodd" d="M31.1053 13.9004L31.9644 15.0617L29 14.1115L31.1053 13.9004Z" fill="url(#paint54_linear)"/>
<path fill-rule="evenodd" clip-rule="evenodd" d="M35 14.1115L32.0526 15.0969L33.5263 15.5896L35 14.1115Z" fill="url(#paint55_linear)"/>
<path fill-rule="evenodd" clip-rule="evenodd" d="M29 14.1115L31.9474 15.0969L30.4737 15.536L29 14.1115Z" fill="url(#paint56_linear)"/>
<path fill-rule="evenodd" clip-rule="evenodd" d="M33.5263 15.5896L31.9644 15.1145L33.7369 17.5629L33.5263 15.5896Z" fill="url(#paint57_linear)"/>
<path fill-rule="evenodd" clip-rule="evenodd" d="M30.4704 15.5456L31.9644 15.0617L30.1579 17.5955L30.4704 15.5456Z" fill="url(#paint58_linear)"/>
<path fill-rule="evenodd" clip-rule="evenodd" d="M33.7369 17.5955L31.9474 15.0617V16.6277L33.7369 17.5955Z" fill="url(#paint59_linear)"/>
<path fill-rule="evenodd" clip-rule="evenodd" d="M30.1579 17.5955L31.9644 15.1145L31.9474 16.6277L30.1579 17.5955Z" fill="url(#paint60_linear)"/>
<path fill-rule="evenodd" clip-rule="evenodd" d="M31.9662 15.1381L30.1258 17.5955L31.9226 15.1145L30.5094 15.5711L30.4796 15.564L31.9149 15.0856L29 14.1373L31.9216 15.0511L31.7085 14.7574L31.9474 15.0297V12L31.9827 15.0383L32.2955 14.6756L32.0136 15.0609L34.8947 14.1373L32.0526 15.0969L33.3701 15.564L32.0136 15.1381L33.7689 17.5955L31.9662 15.1381Z" fill="white"/>
<defs>
<filter id="filter0_i" x="12.6223" y="8.6409" width="38.876" height="45.0236" filterUnits="userSpaceOnUse" color-interpolation-filters="sRGB">
<feFlood flood-opacity="0" result="BackgroundImageFix"/>
<feBlend mode="normal" in="SourceGraphic" in2="BackgroundImageFix" result="shape"/>
<feColorMatrix in="SourceAlpha" type="matrix" values="0 0 0 0 0 0 0 0 0 0 0 0 0 0 0 0 0 0 127 0" result="hardAlpha"/>
<feOffset/>
<feGaussianBlur stdDeviation="3.5"/>
<feComposite in2="hardAlpha" operator="arithmetic" k2="-1" k3="1"/>
<feColorMatrix type="matrix" values="0 0 0 0 0.764917 0 0 0 0 0.410443 0 0 0 0 0 0 0 0 1 0"/>
<feBlend mode="normal" in2="shape" result="effect1_innerShadow"/>
</filter>
<filter id="filter1_d" x="13.271" y="15.6927" width="15.1962" height="26.7457" filterUnits="userSpaceOnUse" color-interpolation-filters="sRGB">
<feFlood flood-opacity="0" result="BackgroundImageFix"/>
<feColorMatrix in="SourceAlpha" type="matrix" values="0 0 0 0 0 0 0 0 0 0 0 0 0 0 0 0 0 0 127 0"/>
<feOffset dy="2"/>
<feGaussianBlur stdDeviation="3.5"/>
<feColorMatrix type="matrix" values="0 0 0 0 0 0 0 0 0 0 0 0 0 0 0 0 0 0 1 0"/>
<feBlend mode="normal" in2="BackgroundImageFix" result="effect1_dropShadow"/>
<feBlend mode="normal" in="SourceGraphic" in2="effect1_dropShadow" result="shape"/>
</filter>
<linearGradient id="paint0_linear" x1="29.5555" y1="59.6158" x2="30.0564" y2="6.01168" gradientUnits="userSpaceOnUse">
<stop stop-color="#F7AF36"/>
<stop offset="0.284297" stop-color="#F8AE36"/>
<stop offset="0.521296" stop-color="#FBE06F"/>
<stop offset="0.857956" stop-color="#FCED9B"/>
<stop offset="1" stop-color="#FFFBCA"/>
</linearGradient>
<linearGradient id="paint1_linear" x1="32.0603" y1="5.6848" x2="32.0603" y2="56.6206" gradientUnits="userSpaceOnUse">
<stop stop-color="#EA991E"/>
<stop offset="0.719545" stop-color="#EBA32E"/>
<stop offset="0.777417" stop-color="#F1CC73"/>
<stop offset="1" stop-color="#F9ECA0"/>
</linearGradient>
<linearGradient id="paint2_linear" x1="6.66787" y1="5.68479" x2="6.66787" y2="56.6206" gradientUnits="userSpaceOnUse">
<stop stop-color="white"/>
<stop offset="0.528812" stop-color="#FDF29D"/>
<stop offset="1" stop-color="#FAFEFF"/>
</linearGradient>
<radialGradient id="paint3_angular" cx="0" cy="0" r="1" gradientUnits="userSpaceOnUse" gradientTransform="translate(32.0603 31.1527) scale(22.4451 22.5118)">
<stop offset="0.135192" stop-color="#FED769"/>
<stop offset="0.314576" stop-color="#FFC057"/>
<stop offset="0.471823" stop-color="#FFEE85"/>
<stop offset="0.87152" stop-color="#FEFCCA"/>
</radialGradient>
<linearGradient id="paint4_linear" x1="31.8336" y1="8.6409" x2="31.8336" y2="53.6645" gradientUnits="userSpaceOnUse">
<stop stop-color="#3A3A3A"/>
<stop offset="1" stop-color="#181818"/>
</linearGradient>
<linearGradient id="paint5_linear" x1="35.4806" y1="6.01702" x2="21.0969" y2="22.0235" gradientUnits="userSpaceOnUse">
<stop/>
<stop offset="1" stop-color="white"/>
</linearGradient>
<linearGradient id="paint6_linear" x1="8.64737" y1="12.4251" x2="6.58967" y2="16.4079" gradientUnits="userSpaceOnUse">
<stop stop-color="#FDFCDE"/>
<stop offset="1" stop-color="#FBF7BA"/>
</linearGradient>
<linearGradient id="paint7_linear" x1="5.19727" y1="21.2331" x2="5.19727" y2="25.3262" gradientUnits="userSpaceOnUse">
<stop offset="0.035341" stop-color="#E5A721" stop-opacity="0.839297"/>
<stop offset="1" stop-color="#D58223" stop-opacity="0.01"/>
</linearGradient>
<linearGradient id="paint8_linear" x1="5.45513" y1="16.8821" x2="5.21818" y2="21.2081" gradientUnits="userSpaceOnUse">
<stop stop-color="#FCE368"/>
<stop offset="1" stop-color="#F8C237"/>
</linearGradient>
<linearGradient id="paint9_linear" x1="55.4734" y1="12.4251" x2="57.5311" y2="16.4079" gradientUnits="userSpaceOnUse">
<stop stop-color="#FDFCDE"/>
<stop offset="1" stop-color="#FBF7BA"/>
</linearGradient>
<linearGradient id="paint10_linear" x1="0" y1="0" x2="0" y2="4.09306" gradientUnits="userSpaceOnUse">
<stop offset="0.035341" stop-color="#E5A721" stop-opacity="0.839297"/>
<stop offset="1" stop-color="#D58223" stop-opacity="0.01"/>
</linearGradient>
<linearGradient id="paint11_linear" x1="58.6656" y1="16.8821" x2="58.9025" y2="21.2081" gradientUnits="userSpaceOnUse">
<stop stop-color="#FCE368"/>
<stop offset="1" stop-color="#F8C237"/>
</linearGradient>
<linearGradient id="paint12_linear" x1="24.7355" y1="51.8186" x2="29.9919" y2="55.0426" gradientUnits="userSpaceOnUse">
<stop stop-color="#EE970E" stop-opacity="0.01"/>
<stop offset="1" stop-color="#D95E06" stop-opacity="0.582086"/>
</linearGradient>
<linearGradient id="paint13_linear" x1="26.1464" y1="67.8546" x2="32.9212" y2="67.1871" gradientUnits="userSpaceOnUse">
<stop stop-color="#FAD181"/>
<stop offset="1" stop-color="#F4A54A"/>
</linearGradient>
<linearGradient id="paint14_linear" x1="38.6224" y1="51.5285" x2="38.6224" y2="64" gradientUnits="userSpaceOnUse">
<stop stop-color="#FFE687"/>
<stop offset="1" stop-color="#FEC84F"/>
</linearGradient>
<linearGradient id="paint15_linear" x1="39.6087" y1="46.2511" x2="39.6087" y2="29.8119" gradientUnits="userSpaceOnUse">
<stop stop-color="#FEA534"/>
<stop offset="1" stop-color="#FDEA81"/>
</linearGradient>
<linearGradient id="paint16_linear" x1="39.6157" y1="46.2602" x2="39.6157" y2="29.8152" gradientUnits="userSpaceOnUse">
<stop stop-color="#FEA534"/>
<stop offset="1" stop-color="#FDEA81"/>
</linearGradient>
<linearGradient id="paint17_linear" x1="42.1968" y1="33.4711" x2="42.1968" y2="22.5785" gradientUnits="userSpaceOnUse">
<stop stop-color="#F9AE1F"/>
<stop offset="1" stop-color="#FED762"/>
</linearGradient>
<linearGradient id="paint18_linear" x1="23.0376" y1="37.1448" x2="24.2939" y2="36.0348" gradientUnits="userSpaceOnUse">
<stop stop-color="#F7B827"/>
<stop offset="1" stop-color="#EC8211"/>
</linearGradient>
<linearGradient id="paint19_linear" x1="40.9667" y1="37.1448" x2="39.7139" y2="36.0609" gradientUnits="userSpaceOnUse">
<stop stop-color="#F7B827"/>
<stop offset="1" stop-color="#EC8211"/>
</linearGradient>
<linearGradient id="paint20_linear" x1="28.1461" y1="39.7413" x2="27.505" y2="38.2578" gradientUnits="userSpaceOnUse">
<stop stop-color="#EBAF1B"/>
<stop offset="1" stop-color="#D3770B"/>
</linearGradient>
<linearGradient id="paint21_linear" x1="36.0087" y1="39.8301" x2="36.5034" y2="38.5161" gradientUnits="userSpaceOnUse">
<stop stop-color="#EBAF1B"/>
<stop offset="1" stop-color="#D3770B"/>
</linearGradient>
<linearGradient id="paint22_linear" x1="24.0287" y1="24.1954" x2="24.0287" y2="30.9235" gradientUnits="userSpaceOnUse">
<stop stop-color="#FEB94B"/>
<stop offset="1" stop-color="#FEDC68"/>
</linearGradient>
<linearGradient id="paint23_linear" x1="40.194" y1="24.0111" x2="40.194" y2="30.5478" gradientUnits="userSpaceOnUse">
<stop stop-color="#FEB94B"/>
<stop offset="1" stop-color="#FEDC68"/>
</linearGradient>
<linearGradient id="paint24_linear" x1="23.3749" y1="31.8453" x2="25.3925" y2="36.1277" gradientUnits="userSpaceOnUse">
<stop stop-color="#FDFCE4"/>
<stop offset="1" stop-color="#FBF8C4"/>
</linearGradient>
<linearGradient id="paint25_linear" x1="40.8386" y1="31.6663" x2="38.624" y2="36.065" gradientUnits="userSpaceOnUse">
<stop stop-color="#FDFCE4"/>
<stop offset="1" stop-color="#FBF8C4"/>
</linearGradient>
<linearGradient id="paint26_linear" x1="30.5915" y1="36.366" x2="32.9058" y2="35.5505" gradientUnits="userSpaceOnUse">
<stop stop-color="#FDBD4F"/>
<stop offset="1" stop-color="#FDBB54"/>
</linearGradient>
<linearGradient id="paint27_linear" x1="33.6259" y1="36.127" x2="31.4721" y2="35.1911" gradientUnits="userSpaceOnUse">
<stop stop-color="#FDBD4F"/>
<stop offset="1" stop-color="#FDBB54"/>
</linearGradient>
<linearGradient id="paint28_linear" x1="31.2816" y1="46.4618" x2="32.4708" y2="42.9964" gradientUnits="userSpaceOnUse">
<stop stop-color="#F29A16"/>
<stop offset="1" stop-color="#EC8311"/>
</linearGradient>
<linearGradient id="paint29_linear" x1="33.3108" y1="46.5414" x2="32.1216" y2="43.076" gradientUnits="userSpaceOnUse">
<stop stop-color="#F29A16"/>
<stop offset="1" stop-color="#EC8311"/>
</linearGradient>
<linearGradient id="paint30_linear" x1="21.9809" y1="33.4818" x2="21.9809" y2="22.5801" gradientUnits="userSpaceOnUse">
<stop stop-color="#F9AE1F"/>
<stop offset="1" stop-color="#FED762"/>
</linearGradient>
<linearGradient id="paint31_linear" x1="26.7378" y1="16.5764" x2="25.6061" y2="17.0263" gradientUnits="userSpaceOnUse">
<stop stop-color="#FDF3CA"/>
<stop offset="1" stop-color="#FCE79F"/>
</linearGradient>
<linearGradient id="paint32_linear" x1="27.1232" y1="17.2216" x2="26.052" y2="17.6246" gradientUnits="userSpaceOnUse">
<stop stop-color="#FDC962"/>
<stop offset="1" stop-color="#FCBF47"/>
</linearGradient>
<linearGradient id="paint33_linear" x1="27.5216" y1="18.9853" x2="27.1584" y2="20.1147" gradientUnits="userSpaceOnUse">
<stop stop-color="#FFF9DE"/>
<stop offset="0.628268" stop-color="#FBF3D2"/>
<stop offset="1" stop-color="#F9F0CB"/>
</linearGradient>
<linearGradient id="paint34_linear" x1="26.4141" y1="18.9816" x2="26.7526" y2="20.0682" gradientUnits="userSpaceOnUse">
<stop stop-color="#FCF4D3"/>
<stop offset="1" stop-color="#F9F0CB"/>
</linearGradient>
<linearGradient id="paint35_linear" x1="27.5207" y1="19.755" x2="27.5788" y2="20.5477" gradientUnits="userSpaceOnUse">
<stop stop-color="#FD9F03"/>
<stop offset="1" stop-color="#FCBA42"/>
</linearGradient>
<linearGradient id="paint36_linear" x1="26.4793" y1="19.7316" x2="26.4253" y2="20.4959" gradientUnits="userSpaceOnUse">
<stop stop-color="#FD9F03"/>
<stop offset="1" stop-color="#FCBA42"/>
</linearGradient>
<linearGradient id="paint37_linear" x1="26.7418" y1="21.1726" x2="28.4747" y2="22.6934" gradientUnits="userSpaceOnUse">
<stop stop-color="#FEF9BB"/>
<stop offset="1" stop-color="#FEDD69"/>
</linearGradient>
<linearGradient id="paint38_linear" x1="26.5454" y1="21.0011" x2="25.375" y2="22.4994" gradientUnits="userSpaceOnUse">
<stop stop-color="#FDEDAA"/>
<stop offset="1" stop-color="#FED275"/>
</linearGradient>
<linearGradient id="paint39_linear" x1="26.3008" y1="21.3174" x2="28.3397" y2="22.9194" gradientUnits="userSpaceOnUse">
<stop stop-color="#FEA61F"/>
<stop offset="1" stop-color="#FED275"/>
</linearGradient>
<linearGradient id="paint40_linear" x1="26.5382" y1="20.6147" x2="27.283" y2="21.167" gradientUnits="userSpaceOnUse">
<stop stop-color="#FDBC52"/>
<stop offset="1" stop-color="#FDAB23"/>
</linearGradient>
<linearGradient id="paint41_linear" x1="36.7378" y1="16.5764" x2="35.6061" y2="17.0263" gradientUnits="userSpaceOnUse">
<stop stop-color="#FDF3CA"/>
<stop offset="1" stop-color="#FCE79F"/>
</linearGradient>
<linearGradient id="paint42_linear" x1="37.1232" y1="17.2216" x2="36.052" y2="17.6246" gradientUnits="userSpaceOnUse">
<stop stop-color="#FDC962"/>
<stop offset="1" stop-color="#FCBF47"/>
</linearGradient>
<linearGradient id="paint43_linear" x1="37.5216" y1="18.9853" x2="37.1584" y2="20.1147" gradientUnits="userSpaceOnUse">
<stop stop-color="#FFF9DE"/>
<stop offset="0.628268" stop-color="#FBF3D2"/>
<stop offset="1" stop-color="#F9F0CB"/>
</linearGradient>
<linearGradient id="paint44_linear" x1="36.4141" y1="18.9816" x2="36.7526" y2="20.0682" gradientUnits="userSpaceOnUse">
<stop stop-color="#FCF4D3"/>
<stop offset="1" stop-color="#F9F0CB"/>
</linearGradient>
<linearGradient id="paint45_linear" x1="37.5207" y1="19.755" x2="37.5788" y2="20.5477" gradientUnits="userSpaceOnUse">
<stop stop-color="#FD9F03"/>
<stop offset="1" stop-color="#FCBA42"/>
</linearGradient>
<linearGradient id="paint46_linear" x1="36.4793" y1="19.7316" x2="36.4253" y2="20.4959" gradientUnits="userSpaceOnUse">
<stop stop-color="#FD9F03"/>
<stop offset="1" stop-color="#FCBA42"/>
</linearGradient>
<linearGradient id="paint47_linear" x1="36.7418" y1="21.1726" x2="38.4747" y2="22.6934" gradientUnits="userSpaceOnUse">
<stop stop-color="#FEF9BB"/>
<stop offset="1" stop-color="#FEDD69"/>
</linearGradient>
<linearGradient id="paint48_linear" x1="36.5454" y1="21.0011" x2="35.375" y2="22.4994" gradientUnits="userSpaceOnUse">
<stop stop-color="#FDEDAA"/>
<stop offset="1" stop-color="#FED275"/>
</linearGradient>
<linearGradient id="paint49_linear" x1="36.3008" y1="21.3174" x2="38.3397" y2="22.9194" gradientUnits="userSpaceOnUse">
<stop stop-color="#FEA61F"/>
<stop offset="1" stop-color="#FED275"/>
</linearGradient>
<linearGradient id="paint50_linear" x1="36.5382" y1="20.6147" x2="37.283" y2="21.167" gradientUnits="userSpaceOnUse">
<stop stop-color="#FDBC52"/>
<stop offset="1" stop-color="#FDAB23"/>
</linearGradient>
<linearGradient id="paint51_linear" x1="31.7378" y1="11.5764" x2="30.6061" y2="12.0263" gradientUnits="userSpaceOnUse">
<stop stop-color="#FDF3CA"/>
<stop offset="1" stop-color="#FCE79F"/>
</linearGradient>
<linearGradient id="paint52_linear" x1="32.1232" y1="12.2216" x2="31.052" y2="12.6246" gradientUnits="userSpaceOnUse">
<stop stop-color="#FDC962"/>
<stop offset="1" stop-color="#FCBF47"/>
</linearGradient>
<linearGradient id="paint53_linear" x1="32.5216" y1="13.9853" x2="32.1584" y2="15.1147" gradientUnits="userSpaceOnUse">
<stop stop-color="#FFF9DE"/>
<stop offset="0.628268" stop-color="#FBF3D2"/>
<stop offset="1" stop-color="#F9F0CB"/>
</linearGradient>
<linearGradient id="paint54_linear" x1="31.4141" y1="13.9816" x2="31.7526" y2="15.0682" gradientUnits="userSpaceOnUse">
<stop stop-color="#FCF4D3"/>
<stop offset="1" stop-color="#F9F0CB"/>
</linearGradient>
<linearGradient id="paint55_linear" x1="32.5207" y1="14.755" x2="32.5788" y2="15.5477" gradientUnits="userSpaceOnUse">
<stop stop-color="#FD9F03"/>
<stop offset="1" stop-color="#FCBA42"/>
</linearGradient>
<linearGradient id="paint56_linear" x1="31.4793" y1="14.7316" x2="31.4253" y2="15.4959" gradientUnits="userSpaceOnUse">
<stop stop-color="#FD9F03"/>
<stop offset="1" stop-color="#FCBA42"/>
</linearGradient>
<linearGradient id="paint57_linear" x1="31.7418" y1="16.1726" x2="33.4747" y2="17.6934" gradientUnits="userSpaceOnUse">
<stop stop-color="#FEF9BB"/>
<stop offset="1" stop-color="#FEDD69"/>
</linearGradient>
<linearGradient id="paint58_linear" x1="31.5454" y1="16.0011" x2="30.375" y2="17.4994" gradientUnits="userSpaceOnUse">
<stop stop-color="#FDEDAA"/>
<stop offset="1" stop-color="#FED275"/>
</linearGradient>
<linearGradient id="paint59_linear" x1="31.3008" y1="16.3174" x2="33.3397" y2="17.9194" gradientUnits="userSpaceOnUse">
<stop stop-color="#FEA61F"/>
<stop offset="1" stop-color="#FED275"/>
</linearGradient>
<linearGradient id="paint60_linear" x1="31.5382" y1="15.6147" x2="32.283" y2="16.167" gradientUnits="userSpaceOnUse">
<stop stop-color="#FDBC52"/>
<stop offset="1" stop-color="#FDAB23"/>
</linearGradient>
</defs>
</svg>