<svg width="44" height="44" viewBox="0 0 64 64" fill="none" xmlns="http://www.w3.org/2000/svg">
<path fill-rule="evenodd" clip-rule="evenodd" d="M32 1L59 16.5V47.5L32 63L5 47.5V16.5L32 1Z" fill="url(#paint0_linear)"/>
<path fill-rule="evenodd" clip-rule="evenodd" d="M32 7L53 19.5V44.5L32 57L11 44.5V19.5L32 7Z" fill="url(#paint1_linear)" stroke="url(#paint2_linear)"/>
<path fill-rule="evenodd" clip-rule="evenodd" d="M29.9539 55.4648L24.0392 52.0728L22.0848 57.2791L27.4137 60.4684L29.9539 55.4648Z" fill="url(#paint3_linear)"/>
<path fill-rule="evenodd" clip-rule="evenodd" d="M34 55.3921L39.9146 52L41.8691 57.2063L36.5401 60.3957L34 55.3921Z" fill="url(#paint4_linear)"/>
<g filter="url(#filter0_i)">
<path fill-rule="evenodd" clip-rule="evenodd" d="M32 11L49 21.5V42.5L32 53L15 42.5V21.5L32 11Z" fill="url(#paint5_linear)"/>
</g>
<path opacity="0.546573" fill-rule="evenodd" clip-rule="evenodd" d="M32 32L14.9999 42.5V21.5L32 32Z" fill="#454545"/>
<path opacity="0.546573" fill-rule="evenodd" clip-rule="evenodd" d="M32 32L49.0001 42.5V21.5L32 32Z" fill="#454545"/>
<path fill-rule="evenodd" clip-rule="evenodd" d="M26 60.5085L32 64V52L26 60.5085Z" fill="url(#paint6_linear)"/>
<path fill-rule="evenodd" clip-rule="evenodd" d="M38 60.5085L32 64V52L38 60.5085Z" fill="url(#paint7_linear)"/>
<path fill-rule="evenodd" clip-rule="evenodd" d="M26.0001 60.5L32 52L38.0001 60.5L32.0566 52.3232L32.0001 64L31.939 52.3232L26.0001 60.5Z" fill="white"/>
<path opacity="0.153065" fill-rule="evenodd" clip-rule="evenodd" d="M32 11V32L49 21.5L32 11Z" fill="url(#paint8_linear)"/>
<path opacity="0.153065" fill-rule="evenodd" clip-rule="evenodd" d="M32 53V32L15 42.5L32 53Z" fill="url(#paint9_linear)"/>
<path fill-rule="evenodd" clip-rule="evenodd" d="M61 16L47 23L55 12.5L61 16Z" fill="url(#paint10_linear)"/>
<rect width="10" height="4" transform="matrix(-1 0 0 1 59 23)" fill="url(#paint11_linear)" fill-opacity="0.6"/>
<path fill-rule="evenodd" clip-rule="evenodd" d="M61 23H47L61 16V23Z" fill="url(#paint12_linear)"/>
<path fill-rule="evenodd" clip-rule="evenodd" d="M3 16L17 23L9 12.5L3 16Z" fill="url(#paint13_linear)"/>
<rect x="5" y="23" width="10" height="4" fill="url(#paint14_linear)" fill-opacity="0.6"/>
<path fill-rule="evenodd" clip-rule="evenodd" d="M3 23H17L3 16V23Z" fill="url(#paint15_linear)"/>
<g filter="url(#filter1_d)">
<path fill-rule="evenodd" clip-rule="evenodd" d="M20 22.6927L21.2266 24.955V34.5428L20 35.3222V22.6927Z" fill="url(#paint16_linear)"/>
</g>
<path fill-rule="evenodd" clip-rule="evenodd" d="M36.8089 43.52L36.1637 40.8054L37.7535 42.1627L43.9545 35.3547V22.6927L39.2531 25.9809L39.4221 31.8601L34.7391 35.3547L34.0651 33.1063H35.8737L35.2631 32.1243L32.3491 31.2997L30.3205 32.1243L29.5216 35.3547L24.8059 32.1243V26.1635L20 22.6927V35.3547L26.4239 42.1627L28.0487 40.8054L27.2779 43.52L32.3491 48.6138L36.8089 43.52Z" fill="url(#paint17_linear)"/>
<path fill-rule="evenodd" clip-rule="evenodd" d="M43.9673 22.6927L42.9269 24.7782V34.5732L43.9673 35.3547V22.6927Z" fill="url(#paint18_linear)"/>
<path fill-rule="evenodd" clip-rule="evenodd" d="M21.0645 24.8763L23.8532 26.6608L24.8059 26.1635L20 22.6927L21.0645 24.8763Z" fill="#FEFDEF"/>
<path fill-rule="evenodd" clip-rule="evenodd" d="M42.9269 24.7782L40.2058 26.4782L39.2531 25.9809L43.9702 22.6927L42.9269 24.7782Z" fill="#FEFDEF"/>
<path fill-rule="evenodd" clip-rule="evenodd" d="M20 35.3547L26.4239 42.1627L26.7617 40.3117L21.1321 34.5732L20 35.3547Z" fill="url(#paint19_linear)"/>
<path fill-rule="evenodd" clip-rule="evenodd" d="M44 35.3547L37.7535 42.1627L37.3788 40.5892L42.9269 34.5732L44 35.3547Z" fill="url(#paint20_linear)"/>
<path fill-rule="evenodd" clip-rule="evenodd" d="M26.7618 40.3117L28.0488 40.8054L26.424 42.1627L26.7618 40.3117Z" fill="url(#paint21_linear)"/>
<path fill-rule="evenodd" clip-rule="evenodd" d="M37.3843 40.5854L36.1641 40.8375L37.7535 42.1627L37.3843 40.5854Z" fill="url(#paint22_linear)"/>
<path fill-rule="evenodd" clip-rule="evenodd" d="M23.8533 26.6608V32.8302L24.8059 32.1243V26.1635L23.8533 26.6608Z" fill="url(#paint23_linear)"/>
<path fill-rule="evenodd" clip-rule="evenodd" d="M40.2058 26.4782L40.4296 32.458L39.477 31.8601L39.2531 25.9809L40.2058 26.4782Z" fill="url(#paint24_linear)"/>
<path fill-rule="evenodd" clip-rule="evenodd" d="M29.5216 35.3547L29.9302 37.0504L23.8533 32.8303L24.8059 32.1243L29.5216 35.3547Z" fill="url(#paint25_linear)"/>
<path fill-rule="evenodd" clip-rule="evenodd" d="M34.739 35.3547L34.4379 37.0504L40.4296 32.458L39.4221 31.8601L34.739 35.3547Z" fill="url(#paint26_linear)"/>
<path fill-rule="evenodd" clip-rule="evenodd" d="M30.3205 32.1243L31.0269 32.8303L29.9302 37.0504L29.5216 35.3547L30.3205 32.1243Z" fill="url(#paint27_linear)"/>
<path fill-rule="evenodd" clip-rule="evenodd" d="M34.0892 33.119L33.2578 33.119L34.438 37.0504L34.7391 35.3547L34.0892 33.119Z" fill="url(#paint28_linear)"/>
<path fill-rule="evenodd" clip-rule="evenodd" d="M31.0269 32.8303L32.3492 32.1243V31.2997L30.3206 32.1243L31.0269 32.8303Z" fill="white"/>
<path fill-rule="evenodd" clip-rule="evenodd" d="M34.739 32.6227L32.313 32.1576L32.3491 31.2997L35.2129 32.0983L34.739 32.6227Z" fill="#FDFBDC"/>
<path fill-rule="evenodd" clip-rule="evenodd" d="M34.739 32.6227L35.2129 32.065L35.8873 33.1191L34.739 32.6227Z" fill="#FDBC52"/>
<path fill-rule="evenodd" clip-rule="evenodd" d="M27.278 43.52L28.7617 42.4866L28.0487 40.8054L27.278 43.52Z" fill="#FFDF9B"/>
<path fill-rule="evenodd" clip-rule="evenodd" d="M37.3788 43.5521L35.8951 42.5187L36.1641 40.8375L37.3788 43.52C37.3789 43.6211 37.3788 43.5521 37.3788 43.5521Z" fill="#FFDF9B"/>
<path fill-rule="evenodd" clip-rule="evenodd" d="M28.7617 42.4866L32.3492 45.8419V48.6138L27.278 43.52L28.7617 42.4866Z" fill="url(#paint29_linear)"/>
<path fill-rule="evenodd" clip-rule="evenodd" d="M35.9005 42.5655L32.3131 45.9208V48.6927L37.3843 43.5989L35.9005 42.5655Z" fill="url(#paint30_linear)"/>
<path fill-rule="evenodd" clip-rule="evenodd" d="M20 22.6927L21.2294 24.9627V34.5831L20 35.3652V22.6927Z" fill="url(#paint31_linear)"/>
<path fill-rule="evenodd" clip-rule="evenodd" d="M30.0809 18.5546L30.1035 18.558L30.2175 18.5191L28.5131 20.262L28.4758 20.2493L28.4749 20.2502L28.5131 20.262L28.6101 21.1894L28.8589 22.673L28.7461 22.6123L28.7565 22.6274L28.0705 22.2491L26.7479 21.5381L24.6369 22.673L24.6473 22.6108L24.6172 22.6274L24.6529 22.5774L24.6531 22.576L24.6172 22.6274L24.6267 22.5638L24.58 22.6274L24.6271 22.5611L24.9786 20.2102L24.9802 20.2096L23.8296 19.0627L23.3245 18.565L23.2779 18.5495L23.3236 18.5641L23.278 18.5191L23.3921 18.558L23.3955 18.5575L23.278 18.5191L24.4836 18.3958L25.6924 18.2162L26.6868 16.1558V16.0292L26.6869 16.0352V16.0292L26.7177 16.0918L26.7479 16.0292L26.7779 16.0914L26.8086 16.0292V16.1549L27.8034 18.2162L29.0583 18.4027L30.1789 18.5191L30.0765 18.554L30.0803 18.5545L30.0957 18.5495L30.0809 18.5546Z" fill="#FDE47B"/>
<path fill-rule="evenodd" clip-rule="evenodd" d="M26.8092 16.0292V19.7291L25.7025 18.2325L26.8092 16.0292Z" fill="url(#paint32_linear)"/>
<path fill-rule="evenodd" clip-rule="evenodd" d="M26.6862 16.0292V19.7291L27.7929 18.2325L26.6862 16.0292Z" fill="url(#paint33_linear)"/>
<path fill-rule="evenodd" clip-rule="evenodd" d="M27.7929 18.2491L26.7061 19.6675L30.2132 18.4958L27.7929 18.2491Z" fill="url(#paint34_linear)"/>
<path fill-rule="evenodd" clip-rule="evenodd" d="M25.7025 18.2491L26.7061 19.6058L23.2432 18.4958L25.7025 18.2491Z" fill="url(#paint35_linear)"/>
<path fill-rule="evenodd" clip-rule="evenodd" d="M30.2522 18.4958L26.8092 19.6469L28.5307 20.2225L30.2522 18.4958Z" fill="url(#paint36_linear)"/>
<path fill-rule="evenodd" clip-rule="evenodd" d="M23.2432 18.4958L26.6862 19.6469L24.9647 20.1598L23.2432 18.4958Z" fill="url(#paint37_linear)"/>
<path fill-rule="evenodd" clip-rule="evenodd" d="M28.5307 20.2225L26.7061 19.6675L28.7766 22.5276L28.5307 20.2225Z" fill="url(#paint38_linear)"/>
<path fill-rule="evenodd" clip-rule="evenodd" d="M24.9609 20.1711L26.7061 19.6058L24.5958 22.5657L24.9609 20.1711Z" fill="url(#paint39_linear)"/>
<path fill-rule="evenodd" clip-rule="evenodd" d="M28.7766 22.5657L26.6862 19.6058V21.4351L28.7766 22.5657Z" fill="url(#paint40_linear)"/>
<path fill-rule="evenodd" clip-rule="evenodd" d="M24.5958 22.5657L26.7061 19.6675L26.6862 21.4351L24.5958 22.5657Z" fill="url(#paint41_linear)"/>
<path fill-rule="evenodd" clip-rule="evenodd" d="M26.7083 19.6951L24.5583 22.5657L26.6573 19.6674L25.0064 20.2008L24.9716 20.1926L26.6483 19.6337L23.2432 18.5259L26.6561 19.5934L26.4072 19.2503L26.6863 19.5684V16.0292L26.7275 19.5785L27.093 19.1548L26.7636 19.6049L30.1293 18.5259L26.8092 19.6469L28.3483 20.1926L26.7636 19.6951L28.8142 22.5657L26.7083 19.6951Z" fill="white"/>
<path fill-rule="evenodd" clip-rule="evenodd" d="M40.0564 18.5546L40.0791 18.558L40.1931 18.5191L38.4887 20.262L38.4514 20.2493L38.4505 20.2502L38.4887 20.262L38.5858 21.1899L38.8345 22.673L38.7217 22.6123L38.7322 22.6274L38.0471 22.2497L36.7235 21.5381L34.6124 22.673L34.6229 22.6108L34.5928 22.6274L34.6285 22.5775L34.6287 22.5761L34.5928 22.6274L34.6023 22.5638L34.5556 22.6274L34.6027 22.561L34.9542 20.2102L34.9558 20.2097L33.8028 19.0603L33.3001 18.565L33.2535 18.5495L33.2992 18.5641L33.2536 18.5191L33.3677 18.558L33.3711 18.5575L33.2536 18.5191L34.4591 18.3958L35.668 18.2162L36.6624 16.1558V16.0292L36.6625 16.0376V16.0292L36.6933 16.0917L36.7235 16.0292L36.7535 16.0914L36.7842 16.0292V16.155L37.779 18.2162L39.0338 18.4026L40.1545 18.5191L40.0521 18.554L40.0559 18.5545L40.0713 18.5495L40.0564 18.5546Z" fill="#FDE47B"/>
<path fill-rule="evenodd" clip-rule="evenodd" d="M36.7849 16.0292V19.7291L35.6782 18.2325L36.7849 16.0292Z" fill="url(#paint42_linear)"/>
<path fill-rule="evenodd" clip-rule="evenodd" d="M36.6619 16.0292V19.7291L37.7686 18.2325L36.6619 16.0292Z" fill="url(#paint43_linear)"/>
<path fill-rule="evenodd" clip-rule="evenodd" d="M37.7686 18.2491L36.6817 19.6675L40.1889 18.4958L37.7686 18.2491Z" fill="url(#paint44_linear)"/>
<path fill-rule="evenodd" clip-rule="evenodd" d="M35.6782 18.2491L36.6817 19.6058L33.2188 18.4958L35.6782 18.2491Z" fill="url(#paint45_linear)"/>
<path fill-rule="evenodd" clip-rule="evenodd" d="M40.2279 18.4958L36.7849 19.6469L38.5064 20.2225L40.2279 18.4958Z" fill="url(#paint46_linear)"/>
<path fill-rule="evenodd" clip-rule="evenodd" d="M33.2188 18.4958L36.6619 19.6469L34.9403 20.1598L33.2188 18.4958Z" fill="url(#paint47_linear)"/>
<path fill-rule="evenodd" clip-rule="evenodd" d="M38.5064 20.2225L36.6817 19.6675L38.7523 22.5276L38.5064 20.2225Z" fill="url(#paint48_linear)"/>
<path fill-rule="evenodd" clip-rule="evenodd" d="M34.9365 20.1711L36.6817 19.6058L34.5715 22.5658L34.9365 20.1711Z" fill="url(#paint49_linear)"/>
<path fill-rule="evenodd" clip-rule="evenodd" d="M38.7523 22.5658L36.6619 19.6058V21.4352L38.7523 22.5658Z" fill="url(#paint50_linear)"/>
<path fill-rule="evenodd" clip-rule="evenodd" d="M34.5715 22.5657L36.6817 19.6675L36.6619 21.4351L34.5715 22.5657Z" fill="url(#paint51_linear)"/>
<path fill-rule="evenodd" clip-rule="evenodd" d="M36.6839 19.6951L34.5339 22.5657L36.6329 19.6674L34.982 20.2008L34.9472 20.1926L36.6239 19.6337L33.2188 18.5259L36.6317 19.5934L36.3828 19.2503L36.6618 19.5684V16.0292L36.7031 19.5785L37.0686 19.1548L36.7392 19.6049L40.1049 18.5259L36.7848 19.6469L38.3239 20.1926L36.7392 19.6951L38.7898 22.5657L36.6839 19.6951Z" fill="white"/>
<defs>
<filter id="filter0_i" x="15" y="11" width="34" height="46" filterUnits="userSpaceOnUse" color-interpolation-filters="sRGB">
<feFlood flood-opacity="0" result="BackgroundImageFix"/>
<feBlend mode="normal" in="SourceGraphic" in2="BackgroundImageFix" result="shape"/>
<feColorMatrix in="SourceAlpha" type="matrix" values="0 0 0 0 0 0 0 0 0 0 0 0 0 0 0 0 0 0 127 0" result="hardAlpha"/>
<feOffset dy="4"/>
<feGaussianBlur stdDeviation="2"/>
<feComposite in2="hardAlpha" operator="arithmetic" k2="-1" k3="1"/>
<feColorMatrix type="matrix" values="0 0 0 0 0 0 0 0 0 0 0 0 0 0 0 0 0 0 0.25 0"/>
<feBlend mode="normal" in2="shape" result="effect1_innerShadow"/>
</filter>
<filter id="filter1_d" x="13" y="17.6927" width="15.2266" height="26.6296" filterUnits="userSpaceOnUse" color-interpolation-filters="sRGB">
<feFlood flood-opacity="0" result="BackgroundImageFix"/>
<feColorMatrix in="SourceAlpha" type="matrix" values="0 0 0 0 0 0 0 0 0 0 0 0 0 0 0 0 0 0 127 0"/>
<feOffset dy="2"/>
<feGaussianBlur stdDeviation="3.5"/>
<feColorMatrix type="matrix" values="0 0 0 0 0 0 0 0 0 0 0 0 0 0 0 0 0 0 1 0"/>
<feBlend mode="normal" in2="BackgroundImageFix" result="effect1_dropShadow"/>
<feBlend mode="normal" in="SourceGraphic" in2="effect1_dropShadow" result="shape"/>
</filter>
<linearGradient id="paint0_linear" x1="29.4858" y1="60.3236" x2="29.98" y2="6.98213" gradientUnits="userSpaceOnUse">
<stop stop-color="#F7AF36"/>
<stop offset="0.284297" stop-color="#F8AE36"/>
<stop offset="0.521296" stop-color="#FBE06F"/>
<stop offset="0.857956" stop-color="#FCED9B"/>
<stop offset="1" stop-color="#FFFBCA"/>
</linearGradient>
<linearGradient id="paint1_linear" x1="32" y1="7" x2="32" y2="57" gradientUnits="userSpaceOnUse">
<stop stop-color="#EA991E"/>
<stop offset="0.719545" stop-color="#EBA32E"/>
<stop offset="0.777417" stop-color="#F1CC73"/>
<stop offset="1" stop-color="#F9ECA0"/>
</linearGradient>
<linearGradient id="paint2_linear" x1="32" y1="7" x2="32" y2="57" gradientUnits="userSpaceOnUse">
<stop stop-color="white"/>
<stop offset="0.499568" stop-color="#FCDF7A"/>
<stop offset="1" stop-color="white"/>
</linearGradient>
<linearGradient id="paint3_linear" x1="24.7355" y1="51.8186" x2="29.9919" y2="55.0425" gradientUnits="userSpaceOnUse">
<stop stop-color="#EE970E" stop-opacity="0.01"/>
<stop offset="1" stop-color="#D95E06" stop-opacity="0.582086"/>
</linearGradient>
<linearGradient id="paint4_linear" x1="39.2184" y1="51.7459" x2="33.962" y2="54.9698" gradientUnits="userSpaceOnUse">
<stop stop-color="#EE970E" stop-opacity="0.01"/>
<stop offset="1" stop-color="#D95E06" stop-opacity="0.582086"/>
</linearGradient>
<linearGradient id="paint5_linear" x1="32" y1="11" x2="32" y2="53" gradientUnits="userSpaceOnUse">
<stop stop-color="#0A0A0A"/>
<stop offset="0.516158" stop-color="#3A3A3A"/>
<stop offset="1" stop-color="#262626"/>
</linearGradient>
<linearGradient id="paint6_linear" x1="26.6031" y1="67.4477" x2="32.7832" y2="66.8265" gradientUnits="userSpaceOnUse">
<stop stop-color="#F8AF36"/>
<stop offset="1" stop-color="#F09A27"/>
</linearGradient>
<linearGradient id="paint7_linear" x1="37.7888" y1="52.8449" x2="37.7888" y2="64" gradientUnits="userSpaceOnUse">
<stop stop-color="#FFE687"/>
<stop offset="1" stop-color="#FEC84F"/>
</linearGradient>
<linearGradient id="paint8_linear" x1="35.647" y1="7.54084" x2="21.9995" y2="23.4513" gradientUnits="userSpaceOnUse">
<stop/>
<stop offset="1" stop-color="white"/>
</linearGradient>
<linearGradient id="paint9_linear" x1="28.353" y1="56.4592" x2="42.0005" y2="40.5487" gradientUnits="userSpaceOnUse">
<stop/>
<stop offset="1"/>
</linearGradient>
<linearGradient id="paint10_linear" x1="53.7196" y1="15.0555" x2="55.7841" y2="19.0287" gradientUnits="userSpaceOnUse">
<stop stop-color="#FDFCDE"/>
<stop offset="1" stop-color="#FBF7BA"/>
</linearGradient>
<linearGradient id="paint11_linear" x1="0" y1="0" x2="0" y2="7" gradientUnits="userSpaceOnUse">
<stop offset="0.035341" stop-color="#E56721" stop-opacity="0.839297"/>
<stop offset="0.285765" stop-color="#FFA85C" stop-opacity="0.1"/>
<stop offset="0.665465" stop-color="#D58223" stop-opacity="0.01"/>
</linearGradient>
<linearGradient id="paint12_linear" x1="56.8246" y1="18.9879" x2="57.0134" y2="22.84" gradientUnits="userSpaceOnUse">
<stop stop-color="#FCE368"/>
<stop offset="1" stop-color="#F8C237"/>
</linearGradient>
<linearGradient id="paint13_linear" x1="10.2804" y1="15.0555" x2="8.21592" y2="19.0287" gradientUnits="userSpaceOnUse">
<stop stop-color="#FDFCDE"/>
<stop offset="1" stop-color="#FBF7BA"/>
</linearGradient>
<linearGradient id="paint14_linear" x1="5" y1="23" x2="5" y2="30" gradientUnits="userSpaceOnUse">
<stop offset="0.035341" stop-color="#E56721" stop-opacity="0.839297"/>
<stop offset="0.285765" stop-color="#FFA85C" stop-opacity="0.1"/>
<stop offset="0.665465" stop-color="#D58223" stop-opacity="0.01"/>
</linearGradient>
<linearGradient id="paint15_linear" x1="7.17541" y1="18.9879" x2="6.98656" y2="22.84" gradientUnits="userSpaceOnUse">
<stop stop-color="#FCE368"/>
<stop offset="1" stop-color="#F8C237"/>
</linearGradient>
<linearGradient id="paint16_linear" x1="39.8296" y1="48.0182" x2="39.8296" y2="31.7288" gradientUnits="userSpaceOnUse">
<stop stop-color="#FEA534"/>
<stop offset="1" stop-color="#FDEA81"/>
</linearGradient>
<linearGradient id="paint17_linear" x1="39.8367" y1="48.0273" x2="39.8367" y2="31.7321" gradientUnits="userSpaceOnUse">
<stop stop-color="#FEA534"/>
<stop offset="1" stop-color="#FDEA81"/>
</linearGradient>
<linearGradient id="paint18_linear" x1="42.4835" y1="35.3547" x2="42.4835" y2="24.5613" gradientUnits="userSpaceOnUse">
<stop stop-color="#F9AE1F"/>
<stop offset="1" stop-color="#FED762"/>
</linearGradient>
<linearGradient id="paint19_linear" x1="22.837" y1="38.9949" x2="24.0863" y2="37.8525" gradientUnits="userSpaceOnUse">
<stop stop-color="#F7B827"/>
<stop offset="1" stop-color="#EC8211"/>
</linearGradient>
<linearGradient id="paint20_linear" x1="41.222" y1="38.9949" x2="39.9752" y2="37.8786" gradientUnits="userSpaceOnUse">
<stop stop-color="#F7B827"/>
<stop offset="1" stop-color="#EC8211"/>
</linearGradient>
<linearGradient id="paint21_linear" x1="28.0755" y1="41.5677" x2="27.4552" y2="40.0822" gradientUnits="userSpaceOnUse">
<stop stop-color="#EBAF1B"/>
<stop offset="1" stop-color="#D3770B"/>
</linearGradient>
<linearGradient id="paint22_linear" x1="36.138" y1="41.6557" x2="36.6155" y2="40.3429" gradientUnits="userSpaceOnUse">
<stop stop-color="#EBAF1B"/>
<stop offset="1" stop-color="#D3770B"/>
</linearGradient>
<linearGradient id="paint23_linear" x1="23.8533" y1="26.1635" x2="23.8533" y2="32.8302" gradientUnits="userSpaceOnUse">
<stop stop-color="#FEB94B"/>
<stop offset="1" stop-color="#FEDC68"/>
</linearGradient>
<linearGradient id="paint24_linear" x1="40.4296" y1="25.9809" x2="40.4296" y2="32.458" gradientUnits="userSpaceOnUse">
<stop stop-color="#FEB94B"/>
<stop offset="1" stop-color="#FEDC68"/>
</linearGradient>
<linearGradient id="paint25_linear" x1="23.1829" y1="33.7437" x2="25.1382" y2="38.0387" gradientUnits="userSpaceOnUse">
<stop stop-color="#FDFCE4"/>
<stop offset="1" stop-color="#FBF8C4"/>
</linearGradient>
<linearGradient id="paint26_linear" x1="41.0906" y1="33.5663" x2="38.9414" y2="37.9841" gradientUnits="userSpaceOnUse">
<stop stop-color="#FDFCE4"/>
<stop offset="1" stop-color="#FBF8C4"/>
</linearGradient>
<linearGradient id="paint27_linear" x1="30.583" y1="38.2232" x2="32.9377" y2="37.3645" gradientUnits="userSpaceOnUse">
<stop stop-color="#FDBD4F"/>
<stop offset="1" stop-color="#FDBB54"/>
</linearGradient>
<linearGradient id="paint28_linear" x1="33.6946" y1="37.9864" x2="31.5107" y2="37.0043" gradientUnits="userSpaceOnUse">
<stop stop-color="#FDBD4F"/>
<stop offset="1" stop-color="#FDBB54"/>
</linearGradient>
<linearGradient id="paint29_linear" x1="31.2907" y1="48.227" x2="32.4373" y2="44.769" gradientUnits="userSpaceOnUse">
<stop stop-color="#F29A16"/>
<stop offset="1" stop-color="#EC8311"/>
</linearGradient>
<linearGradient id="paint30_linear" x1="33.3716" y1="48.3059" x2="32.2863" y2="46.1054" gradientUnits="userSpaceOnUse">
<stop stop-color="#F29A16"/>
<stop offset="1" stop-color="#D97407"/>
</linearGradient>
<linearGradient id="paint31_linear" x1="21.7534" y1="35.3652" x2="21.7534" y2="24.5629" gradientUnits="userSpaceOnUse">
<stop stop-color="#F9AE1F"/>
<stop offset="1" stop-color="#FED762"/>
</linearGradient>
<linearGradient id="paint32_linear" x1="26.4414" y1="15.5343" x2="25.1194" y2="16.0599" gradientUnits="userSpaceOnUse">
<stop stop-color="#FDF3CA"/>
<stop offset="1" stop-color="#FCE79F"/>
</linearGradient>
<linearGradient id="paint33_linear" x1="26.8916" y1="16.2881" x2="25.6403" y2="16.7588" gradientUnits="userSpaceOnUse">
<stop stop-color="#FDC962"/>
<stop offset="1" stop-color="#FCBF47"/>
</linearGradient>
<linearGradient id="paint34_linear" x1="27.357" y1="18.3484" x2="26.9328" y2="19.6677" gradientUnits="userSpaceOnUse">
<stop stop-color="#FFF9DE"/>
<stop offset="0.628268" stop-color="#FBF3D2"/>
<stop offset="1" stop-color="#F9F0CB"/>
</linearGradient>
<linearGradient id="paint35_linear" x1="26.0633" y1="18.3441" x2="26.4587" y2="19.6133" gradientUnits="userSpaceOnUse">
<stop stop-color="#FCF4D3"/>
<stop offset="1" stop-color="#F9F0CB"/>
</linearGradient>
<linearGradient id="paint36_linear" x1="27.356" y1="19.2475" x2="27.4239" y2="20.1735" gradientUnits="userSpaceOnUse">
<stop stop-color="#FD9F03"/>
<stop offset="1" stop-color="#FCBA42"/>
</linearGradient>
<linearGradient id="paint37_linear" x1="26.1394" y1="19.2202" x2="26.0763" y2="20.113" gradientUnits="userSpaceOnUse">
<stop stop-color="#FD9F03"/>
<stop offset="1" stop-color="#FCBA42"/>
</linearGradient>
<linearGradient id="paint38_linear" x1="26.4461" y1="20.9036" x2="28.4704" y2="22.68" gradientUnits="userSpaceOnUse">
<stop stop-color="#FEF9BB"/>
<stop offset="1" stop-color="#FEDD69"/>
</linearGradient>
<linearGradient id="paint39_linear" x1="26.2167" y1="20.7032" x2="24.8494" y2="22.4534" gradientUnits="userSpaceOnUse">
<stop stop-color="#FDEDAA"/>
<stop offset="1" stop-color="#FED275"/>
</linearGradient>
<linearGradient id="paint40_linear" x1="25.9309" y1="21.0726" x2="28.3127" y2="22.944" gradientUnits="userSpaceOnUse">
<stop stop-color="#FEA61F"/>
<stop offset="1" stop-color="#FED275"/>
</linearGradient>
<linearGradient id="paint41_linear" x1="26.2082" y1="20.2518" x2="27.0783" y2="20.897" gradientUnits="userSpaceOnUse">
<stop stop-color="#FDBC52"/>
<stop offset="1" stop-color="#FDAB23"/>
</linearGradient>
<linearGradient id="paint42_linear" x1="36.4171" y1="15.5343" x2="35.0951" y2="16.0599" gradientUnits="userSpaceOnUse">
<stop stop-color="#FDF3CA"/>
<stop offset="1" stop-color="#FCE79F"/>
</linearGradient>
<linearGradient id="paint43_linear" x1="36.8673" y1="16.2881" x2="35.6159" y2="16.7588" gradientUnits="userSpaceOnUse">
<stop stop-color="#FDC962"/>
<stop offset="1" stop-color="#FCBF47"/>
</linearGradient>
<linearGradient id="paint44_linear" x1="37.3327" y1="18.3484" x2="36.9084" y2="19.6677" gradientUnits="userSpaceOnUse">
<stop stop-color="#FFF9DE"/>
<stop offset="0.628268" stop-color="#FBF3D2"/>
<stop offset="1" stop-color="#F9F0CB"/>
</linearGradient>
<linearGradient id="paint45_linear" x1="36.039" y1="18.3441" x2="36.4344" y2="19.6133" gradientUnits="userSpaceOnUse">
<stop stop-color="#FCF4D3"/>
<stop offset="1" stop-color="#F9F0CB"/>
</linearGradient>
<linearGradient id="paint46_linear" x1="37.3316" y1="19.2475" x2="37.3996" y2="20.1735" gradientUnits="userSpaceOnUse">
<stop stop-color="#FD9F03"/>
<stop offset="1" stop-color="#FCBA42"/>
</linearGradient>
<linearGradient id="paint47_linear" x1="36.1151" y1="19.2202" x2="36.052" y2="20.113" gradientUnits="userSpaceOnUse">
<stop stop-color="#FD9F03"/>
<stop offset="1" stop-color="#FCBA42"/>
</linearGradient>
<linearGradient id="paint48_linear" x1="36.4218" y1="20.9036" x2="38.4461" y2="22.68" gradientUnits="userSpaceOnUse">
<stop stop-color="#FEF9BB"/>
<stop offset="1" stop-color="#FEDD69"/>
</linearGradient>
<linearGradient id="paint49_linear" x1="36.1923" y1="20.7032" x2="34.8251" y2="22.4534" gradientUnits="userSpaceOnUse">
<stop stop-color="#FDEDAA"/>
<stop offset="1" stop-color="#FED275"/>
</linearGradient>
<linearGradient id="paint50_linear" x1="35.9066" y1="21.0726" x2="38.2883" y2="22.9441" gradientUnits="userSpaceOnUse">
<stop stop-color="#FEA61F"/>
<stop offset="1" stop-color="#FED275"/>
</linearGradient>
<linearGradient id="paint51_linear" x1="36.1839" y1="20.2518" x2="37.0539" y2="20.897" gradientUnits="userSpaceOnUse">
<stop stop-color="#FDBC52"/>
<stop offset="1" stop-color="#FDAB23"/>
</linearGradient>
</defs>
</svg>