<?xml version="1.0" standalone="no"?>
<!DOCTYPE svg PUBLIC "-//W3C//DTD SVG 20010904//EN"
 "http://www.w3.org/TR/2001/REC-SVG-20010904/DTD/svg10.dtd">
<svg version="1.0" xmlns="http://www.w3.org/2000/svg"
 width="240.000000pt" height="240.000000pt" viewBox="0 0 240.000000 240.000000"
 preserveAspectRatio="xMidYMid meet">

<g transform="translate(0.000000,240.000000) scale(0.100000,-0.100000)"
fill="#000000" stroke="none">
<path d="M988 1393 c-8 -10 -45 -64 -81 -121 l-67 -102 78 -118 77 -117 219
-3 c193 -2 221 0 237 14 17 16 19 35 19 224 0 188 -2 208 -18 223 -16 15 -48
17 -234 17 -192 0 -216 -2 -230 -17z m264 -136 c47 46 48 46 68 28 l21 -19
-48 -48 -47 -48 47 -48 48 -48 -21 -19 c-20 -18 -21 -18 -68 28 l-48 47 -44
-45 c-41 -42 -45 -44 -62 -28 -18 16 -17 19 29 65 l47 48 -47 48 c-45 45 -46
49 -30 65 17 16 20 15 63 -28 l45 -45 47 47z"/>
</g>
</svg>
