<svg width="147" height="156" viewBox="0 0 147 156" fill="none" xmlns="http://www.w3.org/2000/svg">
<path d="M31.9194 28.4292C28.3243 12.3862 23.9302 14.8094 20.7346 24.8362C21.7332 26.6745 22.9316 29.8497 23.8304 34.3618C26.4268 32.2728 29.1232 30.2675 31.9194 28.4292Z" fill="#6A3CEF"/>
<path d="M121.678 17.7511C120.187 4.61692 115.517 1.269 106.673 23.4168C110.151 25.0479 113.43 26.9365 116.51 29.0826C118.498 24.1894 120.088 20.4123 121.678 17.7511Z" fill="#6A3CEF"/>
<path d="M12.7828 101.072C24.1522 122.692 40.8395 42.9431 65.9622 42.9431C87.9675 42.9431 111.165 129.254 132.62 98.9692C121.25 109.737 111.898 93.7536 108.414 87.9491C119.967 84.0794 124.46 46.6445 125.376 36.5497C111.807 22.5852 93.0104 14.6776 73.2973 14.6776C49.825 14.6776 28.0947 25.866 14.5248 44.3732C14.4331 53.6267 13.4247 86.0142 25.8943 88.7062C23.1437 95.0154 18.8343 106.372 12.7828 101.072Z" fill="#6A3CEF"/>
<path d="M73.5469 156C114.115 156 147 124.833 147 86.3323C147 78.0822 145.501 69.8321 142.409 62.0819C141.847 98.0825 130.042 131.666 110.273 132.666C85.1644 134 55.9331 49.6651 44.5029 75.2488C49.6559 66.1653 62.3978 86.1656 67.2697 96.6658C52.8414 92.9991 44.6904 128.5 29.1378 128.5C14.1473 128.5 3.9349 98.1658 3.18538 66.1653C1.0305 72.7488 0 79.5822 0 86.4156C0.0936903 124.833 32.8853 156 73.5469 156Z" fill="#6A3CEF"/>
<path d="M110.053 132.05C85.1154 133.378 56.0838 49.3746 44.7317 74.8579C49.8494 65.8101 62.5043 85.7319 67.3429 96.1909C53.0132 92.5385 44.9178 127.9 29.4715 127.9C17.1889 127.9 8.16285 107.314 4.90609 82.1626C2.67289 119.599 33.9377 151.225 73.4841 151.225C116.287 151.225 148.297 114.536 141.225 74.8579C138.433 105.405 127.267 131.137 110.053 132.05Z" fill="#6A3CEF"/>
<path d="M124.63 52.4647C118.472 33.172 97.5318 19.1027 72.8968 19.1027C43.3349 19.1027 19.1738 39.4063 19.1738 64.4278C19.1738 73.4423 22.3952 81.9512 27.7012 89.028C37.65 70.6621 49.8727 43.1975 65.1274 43.1975C80.0031 43.1975 93.5703 70.8247 108.446 87.9269C110.492 94.9936 122.167 67.0395 124.63 52.4647Z" fill="#6A3CEF"/>
<path d="M65.0393 44.1898C77.2893 44.1898 90.3726 69.2556 102.717 87.2466C90.8438 68.924 77.2893 39.7957 65.0393 39.7957C47.9836 39.7957 37.9951 69.4767 28.7605 87.5506C38.372 69.7254 50.3393 44.1898 65.0393 44.1898Z" fill="#6A3CEF"/>
<path d="M25.2203 89.1428C16.0673 84.5665 19.4396 39.553 30.3589 28.6532C26.0233 32.0646 22.0891 36.0584 18.717 40.6346C16.3886 60.0212 17.1914 85.2322 25.2203 89.1428Z" fill="#6A3CEF"/>
<path d="M108.037 89.8293C117.722 85.8882 121.868 55.2089 122.417 33.4539C118.021 29.674 113.258 26.4822 108.037 23.8783C120.31 34.1258 115.09 84.5375 108.037 89.8293Z" fill="#6A3CEF"/>
<path d="M25.7185 89.1437C16.8917 85.2446 15.9009 60.1079 18.2427 40.6955C20.7646 20.3705 26.7992 6.2674 31.3027 28.7493C32.0233 28.1686 32.7438 27.7538 33.5544 27.339C26.3489 -3.02403 15.0002 19.375 14.4598 45.4242C14.2797 54.6326 13.469 86.5719 25.7185 89.1437Z" fill="#6A3CEF"/>
<path d="M122.201 33.1978C121.619 55.0525 116.766 83.8265 109.293 89.1425C121.813 85.261 126.568 47.8801 127.442 37.5856C129.868 4.84568 120.648 -19.6249 103.858 21.9751C105.023 22.4814 105.993 22.9033 107.158 23.4096C118.416 -5.44881 122.686 9.99294 122.201 33.1978Z" fill="#6A3CEF"/>
</svg>
