<svg
  xmlns="http://www.w3.org/2000/svg"
  width="44"
  height="44"
  viewBox="0 0 44 44"
  name="p2p_exchange_fee"
  class="createIcon__SvgBox-sc-100cak8-0 dbGNPg"
><g><path
      fill-rule="evenodd"
      clip-rule="evenodd"
      d="M24 12C27.7709 11.9982 31.0311 14.63 31.8247 18.3165C32.6182 22.003 30.7297 25.7431 27.292 27.293C25.8259 30.5342 22.3958 32.418 18.874 31.916C15.3522 31.414 12.585 28.6468 12.083 25.125C11.581 21.6032 13.4648 18.1731 16.706 16.707C18.0013 13.8411 20.855 11.9995 24 12ZM20 18C17.8564 18 15.8756 19.1436 14.8038 21C13.7321 22.8564 13.7321 25.1436 14.8038 27C15.8756 28.8564 17.8564 30 20 30C23.3137 30 26 27.3137 26 24C26 20.6863 23.3137 18 20 18ZM24 14C22.286 13.998 20.6535 14.7309 19.516 16.013C21.8023 15.8742 24.0384 16.7221 25.6579 18.3418C27.2775 19.9615 28.1251 22.1977 27.986 24.484C29.8475 22.829 30.4928 20.196 29.6076 17.8677C28.7224 15.5395 26.4908 14.0003 24 14Z"
      fill="#F55365"
    /><path
      fill-rule="evenodd"
      clip-rule="evenodd"
      d="M22.5 28C21.6716 28 21 27.3284 21 26.5C21 25.6716 21.6716 25 22.5 25C23.3284 25 24 25.6716 24 26.5C24 27.3284 23.3284 28 22.5 28Z"
      fill="#F55365"
    /><path
      fill-rule="evenodd"
      clip-rule="evenodd"
      d="M17.5 23C16.9641 23 16.4689 22.7141 16.201 22.25C15.933 21.7859 15.933 21.2141 16.201 20.75C16.4689 20.2859 16.9641 20 17.5 20C18.3284 20 19 20.6716 19 21.5C19 22.3284 18.3284 23 17.5 23Z"
      fill="#F55365"
    /><path
      fill-rule="evenodd"
      clip-rule="evenodd"
      d="M18.5858 24L20 22.5858L21.7678 20.818C21.963 20.6228 22.2796 20.6228 22.4749 20.818L23.182 21.5251C23.3773 21.7204 23.3773 22.037 23.182 22.2323L22.8284 22.5858L21.4142 24L22.1213 23.2929L20.7071 24.7071L20 25.4142L18.2322 27.182C18.037 27.3773 17.7204 27.3773 17.5251 27.182L16.818 26.4749C16.6228 26.2796 16.6228 25.963 16.818 25.7678L18.5858 24Z"
      fill="#F55365"
    /></g></svg>
