<?xml version="1.0" encoding="utf-8" ?>
<svg
  version="1.1"
  id="Слой_1"
  xmlns="http://www.w3.org/2000/svg"
  xmlns:xlink="http://www.w3.org/1999/xlink"
  x="0px"
  y="0px"
  viewBox="0 0 44 44"
  style="enable-background:new 0 0 44 44;"
  xml:space="preserve"
>
<style type="text/css">
	.st0{fill:#0B1324;}
	.st1{fill:#FFFFFF;}
	.st2{fill:url(#SVGID_1_);}
	.st3{fill:url(#SVGID_00000146461821115505190420000002416970268430838933_);}
	.st4{fill:url(#SVGID_00000111878652971339809410000012610014217230078650_);}
	.st5{fill:url(#SVGID_00000078009783472808338910000001434426538129043366_);}
	.st6{fill:url(#SVGID_00000086679697982139542340000004426756393237602203_);}
	.st7{fill:url(#SVGID_00000179604786314991139530000008990873667512233615_);}
	.st8{fill:url(#SVGID_00000026121195316886299080000018070823551385049253_);}
	.st9{fill:url(#SVGID_00000004548349642623710860000016085977327672060068_);}
	.st10{fill:url(#SVGID_00000045578730924124198630000009540326740978622358_);}
</style>
<circle class="st0" cx="22" cy="22" r="22" width="44" height="44" />
<g>
	<g>
		<path
        class="st1"
        d="M17.9,25.1V26c0,0.3-0.3,0.6-0.6,0.6h-0.9c-0.3,0-0.6-0.3-0.6-0.6v-0.9c0-0.3,0.3-0.6,0.6-0.6h0.9
			C17.6,24.5,17.9,24.8,17.9,25.1z"
      />
		<path
        class="st1"
        d="M24.1,6.4v0.9c0,0.3-0.3,0.6-0.6,0.6H22c0,0-0.7,0-1,0c-0.4,0-0.7,0-1,0.1c-0.8,0.2-1.5,0.5-2.1,0.9
			c-0.4,0.3-0.7,0.6-1,1c-0.5,0.6-0.8,1.3-0.9,2.1c-0.1,0.3-0.1,0.7-0.1,1c0,0.4,0,0.7,0.1,1c0.1,0.6,0.4,1.3,0.7,1.8
			c0.1,0.1,0.1,0.2,0.2,0.3c0.3,0.4,0.6,0.7,1,1c0.1,0.1,0.2,0.1,0.3,0.2c0.5,0.3,1.1,0.6,1.8,0.7c0.3,0.1,0.7,0.1,1,0.1
			c0.4,0,0.7,0,1.1,0l0-1.5c0-0.3,0.3-0.6,0.6-0.6h0.9c0.3,0,0.6,0.3,0.6,0.6v3c0,0.3-0.3,0.6-0.6,0.6H21c-0.4,0-0.7,0-1-0.1
			c-0.7-0.1-1.4-0.3-2.1-0.6c0,0,0,0-0.1,0c-0.7-0.3-1.4-0.8-1.9-1.4c0,0,0,0,0,0c0,0-0.1-0.1-0.1-0.1c-0.6-0.6-1-1.2-1.4-2
			c-0.3-0.6-0.5-1.3-0.6-2.1c0-0.3-0.1-0.7-0.1-1s0-0.7,0.1-1c0.1-0.7,0.3-1.4,0.6-2.1c0.3-0.7,0.8-1.4,1.4-2c0,0,0.1-0.1,0.1-0.1
			c0.6-0.6,1.2-1,2-1.4c0.6-0.3,1.3-0.5,2.1-0.6c0.3,0,0.7-0.1,1-0.1h2.5C23.8,5.8,24.1,6.1,24.1,6.4z"
      />
		<path
        class="st1"
        d="M30.3,19.3c0,0.4,0,0.7-0.1,1c-0.1,0.7-0.3,1.4-0.6,2.1c-0.3,0.7-0.8,1.4-1.4,2c0,0-0.1,0.1-0.1,0.1
			c-0.6,0.6-1.2,1-2,1.4c-0.6,0.3-1.3,0.5-2.1,0.6c-0.3,0-0.7,0.1-1,0.1h-2.5c-0.3,0-0.6-0.3-0.6-0.6v-0.9c0-0.3,0.3-0.6,0.6-0.6H23
			c0.4,0,0.7,0,1.1-0.1c0.8-0.2,1.5-0.5,2.1-1c0.4-0.3,0.7-0.6,1-1c0.5-0.6,0.8-1.3,0.9-2.1c0.1-0.3,0.1-0.7,0.1-1
			c0-0.4,0-0.7-0.1-1c-0.1-0.6-0.4-1.2-0.7-1.7c-0.1-0.1-0.1-0.2-0.2-0.3c-0.3-0.4-0.6-0.7-1-1c-0.1-0.1-0.2-0.2-0.4-0.3
			c-0.5-0.3-1.1-0.6-1.7-0.7c-0.4-0.1-0.7-0.1-1.1-0.1h-2.5c-0.3,0-0.6-0.3-0.6-0.6v-0.9c0-0.3,0.3-0.6,0.6-0.6H23
			c0.4,0,0.7,0,1,0.1c0.7,0.1,1.4,0.3,2,0.6c0,0,0,0,0,0c0.7,0.3,1.4,0.8,2,1.4c0,0,0,0,0,0c0,0,0.1,0.1,0.1,0.1
			c0.6,0.6,1,1.2,1.4,2c0.3,0.6,0.5,1.3,0.6,2.1C30.3,18.6,30.3,19,30.3,19.3z"
      />
		<path
        class="st1"
        d="M28.2,6.4v0.9c0,0.3-0.3,0.6-0.6,0.6h-0.9c-0.3,0-0.6-0.3-0.6-0.6V6.4c0-0.3,0.3-0.6,0.6-0.6h0.9
			C28,5.8,28.2,6.1,28.2,6.4z"
      />
	</g>
	<g>
		<path
        class="st1"
        d="M16.8,36.1c0,1.3-1.1,2.1-2.5,2.1c-1,0-1.8-0.4-2.3-0.9c-0.1-0.1-0.1-0.3,0-0.4l0.7-0.5
			c0.1-0.1,0.3-0.1,0.4,0c0.3,0.3,0.6,0.5,1.2,0.5c0.6,0,1-0.3,1-0.7c0-0.5-0.4-0.7-1.1-1l-0.4-0.2c-1.1-0.5-1.8-1-1.8-2.2
			c0-1.1,0.8-2,2.2-2c0.7,0,1.3,0.2,1.8,0.7c0.1,0.1,0.1,0.3,0,0.4l-0.6,0.5c-0.1,0.1-0.3,0.1-0.4,0c-0.2-0.2-0.4-0.3-0.7-0.3
			c-0.4,0-0.7,0.3-0.7,0.6c0,0.5,0.3,0.6,0.9,0.9l0.4,0.2C16.1,34.3,16.8,34.8,16.8,36.1z"
      />
		<path
        class="st1"
        d="M31.9,36.1l-0.7-0.4c-0.1-0.1-0.3,0-0.4,0.1c-0.4,0.6-1.1,1-1.9,1c-1.3,0-2.4-1.1-2.3-2.5c0-0.1,0-0.2,0-0.3
			c0.2-1.1,1.1-1.9,2.2-1.9c0.7,0,1.3,0.3,1.7,0.7c0.1,0.1,0.3,0.1,0.4,0l0.6-0.5c0.1-0.1,0.1-0.3,0-0.4c-0.7-0.8-1.8-1.3-2.9-1.2
			c-1.3,0.1-2.5,0.8-3.1,1.9c-0.3,0.5-0.4,1.1-0.4,1.7c0,2.1,1.6,3.8,3.7,3.8c1.3,0,2.4-0.6,3-1.6C32,36.4,32,36.2,31.9,36.1z"
      />
		<path
        class="st1"
        d="M24.2,33.9h-1.1h-1.3c-0.2,0-0.3,0.1-0.3,0.3V35c0,0.2,0.1,0.3,0.3,0.3H23V36c-0.4,0.5-1.1,0.8-1.8,0.8
			c-1.3,0-2.3-1-2.3-2.3c0-0.1,0-0.3,0-0.4c0.2-1.1,1.1-1.9,2.2-1.9c0.7,0,1.3,0.3,1.7,0.7c0.1,0.1,0.3,0.1,0.4,0l0.6-0.5
			c0.1-0.1,0.1-0.3,0-0.4c-0.7-0.8-1.8-1.3-2.9-1.2c-1.3,0.1-2.5,0.8-3.1,2v0c-0.3,0.5-0.5,1.2-0.5,1.8c0,2,1.7,3.6,3.7,3.6
			c1.4,0,2.6-0.7,3.2-1.8v-0.1v-0.9v-0.9v0v-0.3C24.5,34,24.3,33.9,24.2,33.9z"
      />
	</g>
</g>
</svg>
