<svg width="44" height="44" viewBox="0 0 64 64" fill="none" xmlns="http://www.w3.org/2000/svg">
<path fill-rule="evenodd" clip-rule="evenodd" d="M32 0L60 16V48L32 64L4 48V16L32 0Z" fill="url(#paint0_linear)"/>
<path fill-rule="evenodd" clip-rule="evenodd" d="M32 6L54 19V45L32 58L10 45V19L32 6Z" fill="url(#paint1_linear)" stroke="url(#paint2_linear)"/>
<g filter="url(#filter0_i)">
<path fill-rule="evenodd" clip-rule="evenodd" d="M32 10L51.0526 21V43L32 54L12.9474 43V21L32 10Z" fill="url(#paint3_linear)"/>
</g>
<g filter="url(#filter1_d)">
<path fill-rule="evenodd" clip-rule="evenodd" d="M32.2222 20L40.3333 28.8073H24.1111L32.2222 20Z" fill="url(#paint4_linear)"/>
<path fill-rule="evenodd" clip-rule="evenodd" d="M32.2222 44L40.3333 28.8073H24.1111L32.2222 44Z" fill="url(#paint5_linear)"/>
<path fill-rule="evenodd" clip-rule="evenodd" d="M32.1111 44L45 28.8073H40.2448L32.1111 44Z" fill="url(#paint6_linear)"/>
<path fill-rule="evenodd" clip-rule="evenodd" d="M32.1111 44L19 28.8073H23.9947L32.1111 44Z" fill="url(#paint7_linear)"/>
<path fill-rule="evenodd" clip-rule="evenodd" d="M25 21.1009L19 28.8073H24.0821L25 21.1009Z" fill="url(#paint8_linear)"/>
<path fill-rule="evenodd" clip-rule="evenodd" d="M39.6667 21.1009L45 28.8073H40.3357L39.6667 21.1009Z" fill="url(#paint9_linear)"/>
<path fill-rule="evenodd" clip-rule="evenodd" d="M24.8027 21.1769L32.111 20.2202L23.8888 28.8073L24.8027 21.1769Z" fill="#FEE78B"/>
<path fill-rule="evenodd" clip-rule="evenodd" d="M39.6438 21.1769L32.111 20.2202L40.3333 28.8073L39.6438 21.1769Z" fill="url(#paint10_linear)"/>
<path fill-rule="evenodd" clip-rule="evenodd" d="M19.4445 28.8164L23.8835 28.6555L24.8864 21.48L24.1667 28.5341L31.2732 21.1009L24.3471 28.6555L33.2222 28.8164L24.3471 28.9502L29.8878 39.8165L23.8835 28.9502L19.4445 28.8164Z" fill="white"/>
<path fill-rule="evenodd" clip-rule="evenodd" d="M45 28.7617L40.4875 28.6243L39.6105 21.3211L40.2025 28.5034L33.3635 21.4508L40.021 28.6243L31.2222 28.632L40.021 28.9181L34.4123 39.5963L40.4875 28.9181L45 28.7617Z" fill="white"/>
</g>
<defs>
<filter id="filter0_i" x="12.9474" y="10" width="38.1051" height="44" filterUnits="userSpaceOnUse" color-interpolation-filters="sRGB">
<feFlood flood-opacity="0" result="BackgroundImageFix"/>
<feBlend mode="normal" in="SourceGraphic" in2="BackgroundImageFix" result="shape"/>
<feColorMatrix in="SourceAlpha" type="matrix" values="0 0 0 0 0 0 0 0 0 0 0 0 0 0 0 0 0 0 127 0" result="hardAlpha"/>
<feOffset/>
<feGaussianBlur stdDeviation="2.5"/>
<feComposite in2="hardAlpha" operator="arithmetic" k2="-1" k3="1"/>
<feColorMatrix type="matrix" values="0 0 0 0 0.764917 0 0 0 0 0.410443 0 0 0 0 0 0 0 0 1 0"/>
<feBlend mode="normal" in2="shape" result="effect1_innerShadow"/>
</filter>
<filter id="filter1_d" x="15" y="18" width="34" height="32" filterUnits="userSpaceOnUse" color-interpolation-filters="sRGB">
<feFlood flood-opacity="0" result="BackgroundImageFix"/>
<feColorMatrix in="SourceAlpha" type="matrix" values="0 0 0 0 0 0 0 0 0 0 0 0 0 0 0 0 0 0 127 0"/>
<feOffset dy="2"/>
<feGaussianBlur stdDeviation="2"/>
<feColorMatrix type="matrix" values="0 0 0 0 0.956863 0 0 0 0 0.647059 0 0 0 0 0.290196 0 0 0 1 0"/>
<feBlend mode="normal" in2="BackgroundImageFix" result="effect1_dropShadow"/>
<feBlend mode="normal" in="SourceGraphic" in2="effect1_dropShadow" result="shape"/>
</filter>
<linearGradient id="paint0_linear" x1="29.7419" y1="61.2372" x2="30.3283" y2="6.17662" gradientUnits="userSpaceOnUse">
<stop stop-color="#F7AF36"/>
<stop offset="0.284297" stop-color="#F8AE36"/>
<stop offset="0.521296" stop-color="#FBE06F"/>
<stop offset="0.857956" stop-color="#FCED9B"/>
<stop offset="1" stop-color="#FFFBCA"/>
</linearGradient>
<linearGradient id="paint1_linear" x1="32" y1="6" x2="32" y2="58" gradientUnits="userSpaceOnUse">
<stop stop-color="#EA991E"/>
<stop offset="0.719545" stop-color="#EBA32E"/>
<stop offset="0.777417" stop-color="#F1CC73"/>
<stop offset="1" stop-color="#F9ECA0"/>
</linearGradient>
<linearGradient id="paint2_linear" x1="32" y1="6" x2="32" y2="58" gradientUnits="userSpaceOnUse">
<stop stop-color="white"/>
<stop offset="0.457563" stop-color="#FBDA68"/>
<stop offset="1" stop-color="white"/>
</linearGradient>
<linearGradient id="paint3_linear" x1="30.0771" y1="10" x2="32" y2="54" gradientUnits="userSpaceOnUse">
<stop stop-color="#FEFBC4"/>
<stop offset="0.535966" stop-color="#FFEE85"/>
<stop offset="1" stop-color="#FFCC55"/>
</linearGradient>
<linearGradient id="paint4_linear" x1="24.1111" y1="20" x2="24.1111" y2="28.8073" gradientUnits="userSpaceOnUse">
<stop stop-color="#FFF9C7"/>
<stop offset="1" stop-color="#FEF096"/>
</linearGradient>
<linearGradient id="paint5_linear" x1="24.1111" y1="44" x2="24.1111" y2="28.8073" gradientUnits="userSpaceOnUse">
<stop stop-color="#FED964"/>
<stop offset="1" stop-color="#FAAD1F"/>
</linearGradient>
<linearGradient id="paint6_linear" x1="28.0524" y1="39.6941" x2="36.4182" y2="26.0966" gradientUnits="userSpaceOnUse">
<stop stop-color="#FEA51F"/>
<stop offset="1" stop-color="#E58D00"/>
</linearGradient>
<linearGradient id="paint7_linear" x1="32.1111" y1="44" x2="32.1111" y2="28.8073" gradientUnits="userSpaceOnUse">
<stop stop-color="#F4C100"/>
<stop offset="1" stop-color="#E58E00"/>
</linearGradient>
<linearGradient id="paint8_linear" x1="24.196" y1="31.097" x2="29.1339" y2="25.1418" gradientUnits="userSpaceOnUse">
<stop stop-color="#FDB72A"/>
<stop offset="1" stop-color="#FECC57"/>
</linearGradient>
<linearGradient id="paint9_linear" x1="41.2597" y1="31.1586" x2="36.3718" y2="26.6346" gradientUnits="userSpaceOnUse">
<stop stop-color="#FFE688"/>
<stop offset="1" stop-color="#FEC850"/>
</linearGradient>
<linearGradient id="paint10_linear" x1="40.0132" y1="20.0402" x2="41.7786" y2="27.9273" gradientUnits="userSpaceOnUse">
<stop stop-color="#FFEF9F"/>
<stop offset="1" stop-color="#FDDA66"/>
</linearGradient>
</defs>
</svg>