 <?xml version="1.0" encoding="UTF-8"?>
  <svg width="44" height="44" viewBox="0 0 44 44" fill="none" xmlns="http://www.w3.org/2000/svg">
<path d="M44 22C44 9.84974 34.1503 0 22 0C9.84974 0 0 9.84974 0 22C0 34.1503 9.84974 44 22 44C34.1503 44 44 34.1503 44 22Z" fill="${color}"/>
<path fill-rule="evenodd" clip-rule="evenodd" d="M22 17.5C19.5203 17.5 17.5 19.5203 17.5 22C17.5 24.4797 19.5203 26.5 22 26.5C24.4797 26.5 26.5 24.4797 26.5 22C26.5 19.5203 24.4797 17.5 22 17.5ZM33.55 21.2734L29.8874 19.4441C29.4419 19.2216 29.228 18.7053 29.3856 18.2329L30.6812 14.35C30.8922 13.7125 30.2875 13.1078 29.6547 13.3234L25.7714 14.6192C25.2992 14.7767 24.7831 14.563 24.5605 14.1178L22.7266 10.45C22.4266 9.85 21.5734 9.85 21.2734 10.45L19.444 14.1128C19.2215 14.5582 18.7054 14.7721 18.2331 14.6147L14.3453 13.3188C13.7078 13.1078 13.1031 13.7125 13.3187 14.3453L14.6146 18.229C14.7721 18.701 14.5586 19.217 14.1136 19.4397L10.45 21.2734C9.85 21.5734 9.85 22.4266 10.45 22.7266L14.1128 24.556C14.5582 24.7785 14.7721 25.2946 14.6147 25.7669L13.3187 29.6547C13.1078 30.2922 13.7125 30.8969 14.3453 30.6813L18.2283 29.3856C18.7006 29.228 19.2169 29.4419 19.4394 29.8874L21.2687 33.55C21.5687 34.15 22.4219 34.15 22.7219 33.55L24.5512 29.8874C24.7737 29.4419 25.29 29.228 25.7624 29.3856L29.6453 30.6813C30.2828 30.8922 30.8875 30.2875 30.6719 29.6547L29.3763 25.7717C29.2187 25.2994 29.4326 24.7831 29.878 24.5606L33.5406 22.7313C34.15 22.4266 34.15 21.5734 33.55 21.2734ZM26.2422 26.2422C23.9031 28.5812 20.0969 28.5812 17.7578 26.2422C15.4188 23.9031 15.4188 20.0969 17.7578 17.7578C20.0969 15.4188 23.9031 15.4188 26.2422 17.7578C28.5812 20.0969 28.5812 23.9031 26.2422 26.2422Z" fill="#2A8EED"/>
</svg>