<svg width="44" height="44" viewBox="0 0 64 64" fill="none" xmlns="http://www.w3.org/2000/svg">
<path fill-rule="evenodd" clip-rule="evenodd" d="M32 0L60 16V48L32 64L4 48V16L32 0Z" fill="url(#paint0_linear)"/>
<path fill-rule="evenodd" clip-rule="evenodd" d="M32 6L54 19V45L32 58L10 45V19L32 6Z" fill="url(#paint1_linear)" stroke="url(#paint2_linear)"/>
<g filter="url(#filter0_i)">
<path fill-rule="evenodd" clip-rule="evenodd" d="M32 10L51.0526 21V43L32 54L12.9474 43V21L32 10Z" fill="url(#paint3_linear)"/>
</g>
<g filter="url(#filter1_d)">
<path fill-rule="evenodd" clip-rule="evenodd" d="M31.9997 33.1679L27.7955 38.8265L31.9997 47.6496L36.2043 38.8265L31.9997 33.1679Z" fill="url(#paint4_linear)"/>
<path fill-rule="evenodd" clip-rule="evenodd" d="M31.9999 36.6552L27.7955 38.7737L31.9999 33.1679V36.6552Z" fill="#FDB92F"/>
<path fill-rule="evenodd" clip-rule="evenodd" d="M36.2043 38.8265L31.9999 36.6552V33.1679L36.2043 38.8265Z" fill="#FDEFB0"/>
<path fill-rule="evenodd" clip-rule="evenodd" d="M36.2043 38.8132L31.9999 36.6715V47.6496L36.2043 38.8132Z" fill="#FDDA66"/>
<path fill-rule="evenodd" clip-rule="evenodd" d="M27.7955 38.7737L31.8644 36.4507L31.9999 33.2329L32.1796 36.4507L36.1445 38.7737L32.1796 36.8762L31.9999 47.5563L31.8644 36.8152L27.7955 38.7737Z" fill="white"/>
<path fill-rule="evenodd" clip-rule="evenodd" d="M30.7111 31.8644L24.0303 29.6147L16.9382 36.3395L26.6287 37.6119L30.7111 31.8644Z" fill="url(#paint5_linear)"/>
<path fill-rule="evenodd" clip-rule="evenodd" d="M27.3946 32.9423L24.0805 29.5983L30.7112 31.8646L27.3946 32.9423Z" fill="url(#paint6_linear)"/>
<path fill-rule="evenodd" clip-rule="evenodd" d="M26.6287 37.6119L27.3945 32.9423L30.7112 31.8646L26.6287 37.6119Z" fill="#FDB430"/>
<path fill-rule="evenodd" clip-rule="evenodd" d="M26.6414 37.6077L27.379 32.9473L16.9382 36.3397L26.6414 37.6077Z" fill="url(#paint7_linear)"/>
<path fill-rule="evenodd" clip-rule="evenodd" d="M24.0805 29.5983L27.5472 32.7503L30.6494 31.8847L27.6446 33.05L26.6605 37.5387L27.24 33.1815L17.0271 36.3109L27.2005 32.8629L24.0805 29.5983Z" fill="white"/>
<path fill-rule="evenodd" clip-rule="evenodd" d="M33.2887 31.8644L39.9696 29.6147L47.0617 36.3395L37.3711 37.6119L33.2887 31.8644Z" fill="url(#paint8_linear)"/>
<path fill-rule="evenodd" clip-rule="evenodd" d="M36.6053 32.9423L39.9194 29.5983L33.2887 31.8646L36.6053 32.9423Z" fill="white"/>
<path fill-rule="evenodd" clip-rule="evenodd" d="M37.3712 37.6119L36.6053 32.9423L33.2887 31.8646L37.3712 37.6119Z" fill="#FFB433"/>
<path fill-rule="evenodd" clip-rule="evenodd" d="M37.3585 37.6077L36.6208 32.9473L47.0616 36.3397L37.3585 37.6077Z" fill="url(#paint9_linear)"/>
<path fill-rule="evenodd" clip-rule="evenodd" d="M39.9193 29.5983L36.4527 32.7503L33.3504 31.8847L36.3553 33.05L37.3394 37.5387L36.7599 33.1815L46.9728 36.3109L36.7993 32.8629L39.9193 29.5983Z" fill="white"/>
<path fill-rule="evenodd" clip-rule="evenodd" d="M31.1175 30.3834L31.1926 23.3343L22.6053 18.6674L24.3898 28.2769L31.1175 30.3834Z" fill="url(#paint10_linear)"/>
<path fill-rule="evenodd" clip-rule="evenodd" d="M29.0675 27.5622L31.2236 23.3771L31.1173 30.3835L29.0675 27.5622Z" fill="#FDB92F"/>
<path fill-rule="evenodd" clip-rule="evenodd" d="M24.3898 28.2769L29.0675 27.5622L31.1173 30.3835L24.3898 28.2769Z" fill="url(#paint11_linear)"/>
<path fill-rule="evenodd" clip-rule="evenodd" d="M24.3976 28.2876L29.0579 27.549L22.6051 18.6676L24.3976 28.2876Z" fill="url(#paint12_linear)"/>
<path fill-rule="evenodd" clip-rule="evenodd" d="M31.2236 23.3771L29.2972 27.648L31.0791 30.331L29.0422 27.8333L24.4692 28.2844L28.7922 27.4891L22.66 18.7431L29.083 27.3532L31.2236 23.3771Z" fill="white"/>
<path fill-rule="evenodd" clip-rule="evenodd" d="M32.8823 30.3834L32.8071 23.3343L41.3945 18.6674L39.61 28.2769L32.8823 30.3834Z" fill="url(#paint13_linear)"/>
<path fill-rule="evenodd" clip-rule="evenodd" d="M34.9323 27.5622L32.7761 23.3771L32.8825 30.3835L34.9323 27.5622Z" fill="#FFD070"/>
<path fill-rule="evenodd" clip-rule="evenodd" d="M39.6099 28.2769L34.9322 27.5622L32.8824 30.3835L39.6099 28.2769Z" fill="#FCA214"/>
<path fill-rule="evenodd" clip-rule="evenodd" d="M39.6022 28.2876L34.9419 27.549L41.3947 18.6676L39.6022 28.2876Z" fill="#FDDA66"/>
<path fill-rule="evenodd" clip-rule="evenodd" d="M32.7761 23.3771L34.7025 27.648L32.9207 30.331L34.9575 27.8333L39.5306 28.2844L35.2076 27.4891L41.3398 18.7431L34.9168 27.3532L32.7761 23.3771Z" fill="white"/>
</g>
<defs>
<filter id="filter0_i" x="12.9474" y="10" width="38.1051" height="44" filterUnits="userSpaceOnUse" color-interpolation-filters="sRGB">
<feFlood flood-opacity="0" result="BackgroundImageFix"/>
<feBlend mode="normal" in="SourceGraphic" in2="BackgroundImageFix" result="shape"/>
<feColorMatrix in="SourceAlpha" type="matrix" values="0 0 0 0 0 0 0 0 0 0 0 0 0 0 0 0 0 0 127 0" result="hardAlpha"/>
<feOffset/>
<feGaussianBlur stdDeviation="2.5"/>
<feComposite in2="hardAlpha" operator="arithmetic" k2="-1" k3="1"/>
<feColorMatrix type="matrix" values="0 0 0 0 0.764917 0 0 0 0 0.410443 0 0 0 0 0 0 0 0 1 0"/>
<feBlend mode="normal" in2="shape" result="effect1_innerShadow"/>
</filter>
<filter id="filter1_d" x="14.9382" y="17.6674" width="34.1234" height="32.9822" filterUnits="userSpaceOnUse" color-interpolation-filters="sRGB">
<feFlood flood-opacity="0" result="BackgroundImageFix"/>
<feColorMatrix in="SourceAlpha" type="matrix" values="0 0 0 0 0 0 0 0 0 0 0 0 0 0 0 0 0 0 127 0"/>
<feOffset dy="1"/>
<feGaussianBlur stdDeviation="1"/>
<feColorMatrix type="matrix" values="0 0 0 0 0.764917 0 0 0 0 0.410443 0 0 0 0 0 0 0 0 0.47 0"/>
<feBlend mode="normal" in2="BackgroundImageFix" result="effect1_dropShadow"/>
<feBlend mode="normal" in="SourceGraphic" in2="effect1_dropShadow" result="shape"/>
</filter>
<linearGradient id="paint0_linear" x1="29.7419" y1="61.2372" x2="30.3283" y2="6.17662" gradientUnits="userSpaceOnUse">
<stop stop-color="#F7AF36"/>
<stop offset="0.284297" stop-color="#F8AE36"/>
<stop offset="0.521296" stop-color="#FBE06F"/>
<stop offset="0.857956" stop-color="#FCED9B"/>
<stop offset="1" stop-color="#FFFBCA"/>
</linearGradient>
<linearGradient id="paint1_linear" x1="32" y1="6" x2="32" y2="58" gradientUnits="userSpaceOnUse">
<stop stop-color="#EA991E"/>
<stop offset="0.719545" stop-color="#EBA32E"/>
<stop offset="0.777417" stop-color="#F1CC73"/>
<stop offset="1" stop-color="#F9ECA0"/>
</linearGradient>
<linearGradient id="paint2_linear" x1="32" y1="6" x2="32" y2="58" gradientUnits="userSpaceOnUse">
<stop stop-color="white"/>
<stop offset="0.457563" stop-color="#FBDA68"/>
<stop offset="1" stop-color="white"/>
</linearGradient>
<linearGradient id="paint3_linear" x1="30.0771" y1="10" x2="32" y2="54" gradientUnits="userSpaceOnUse">
<stop stop-color="#FEFBC4"/>
<stop offset="0.535966" stop-color="#FFEE85"/>
<stop offset="1" stop-color="#FFCC55"/>
</linearGradient>
<linearGradient id="paint4_linear" x1="29.8916" y1="44.2585" x2="33.1221" y2="43.3257" gradientUnits="userSpaceOnUse">
<stop stop-color="#FFBA3E"/>
<stop offset="1" stop-color="#FCA214"/>
</linearGradient>
<linearGradient id="paint5_linear" x1="19.4982" y1="31.0649" x2="18.8607" y2="36.4829" gradientUnits="userSpaceOnUse">
<stop stop-color="#FDDA66"/>
<stop offset="1" stop-color="#F9B62C"/>
</linearGradient>
<linearGradient id="paint6_linear" x1="28.1605" y1="31.16" x2="27.6994" y2="32.6216" gradientUnits="userSpaceOnUse">
<stop stop-color="#FFF7BB"/>
<stop offset="1" stop-color="#FEED86"/>
</linearGradient>
<linearGradient id="paint7_linear" x1="30.0779" y1="38.0013" x2="28.9625" y2="32.8164" gradientUnits="userSpaceOnUse">
<stop stop-color="#FED136"/>
<stop offset="1" stop-color="#FCA519"/>
<stop offset="1" stop-color="#FCA519"/>
</linearGradient>
<linearGradient id="paint8_linear" x1="45.1165" y1="32.6" x2="43.1939" y2="36.0188" gradientUnits="userSpaceOnUse">
<stop stop-color="white"/>
<stop offset="1" stop-color="#FEEE8B"/>
</linearGradient>
<linearGradient id="paint9_linear" x1="38.487" y1="36.0855" x2="38.9443" y2="33.8661" gradientUnits="userSpaceOnUse">
<stop stop-color="#FECE57"/>
<stop offset="1" stop-color="#FCA316"/>
</linearGradient>
<linearGradient id="paint10_linear" x1="26.304" y1="20.1719" x2="24.2388" y2="22.8253" gradientUnits="userSpaceOnUse">
<stop stop-color="#FCFCCE"/>
<stop offset="1" stop-color="#FEF5A8"/>
</linearGradient>
<linearGradient id="paint11_linear" x1="29.7692" y1="30.7781" x2="30.4366" y2="28.4165" gradientUnits="userSpaceOnUse">
<stop stop-color="#F7C863"/>
<stop offset="1" stop-color="#ED9734"/>
</linearGradient>
<linearGradient id="paint12_linear" x1="23.5059" y1="23.3243" x2="27.0213" y2="28.1629" gradientUnits="userSpaceOnUse">
<stop stop-color="#FACF4D"/>
<stop offset="1" stop-color="#FCA316"/>
</linearGradient>
<linearGradient id="paint13_linear" x1="37.6957" y1="20.1719" x2="39.761" y2="22.8253" gradientUnits="userSpaceOnUse">
<stop stop-color="#FCFCCF"/>
<stop offset="1" stop-color="#FEFCCA"/>
</linearGradient>
</defs>
</svg>