<svg width="44" height="44" viewBox="0 0 64 64" fill="none" xmlns="http://www.w3.org/2000/svg">
<circle cx="32" cy="32" r="32" fill="url(#paint0_linear)"/>
<circle cx="32" cy="32" r="26" fill="url(#paint1_linear)" stroke="url(#paint2_linear)"/>
<g filter="url(#filter0_i)">
<circle cx="32" cy="32" r="22" fill="url(#paint3_linear)"/>
</g>
<g filter="url(#filter1_i)">
<path fill-rule="evenodd" clip-rule="evenodd" d="M32 42.206L28.6968 52L28.7419 41.6604L22.4484 49.8476L25.8368 40.0829L17.2351 45.776L23.5996 37.6444L13.6218 40.2264L22.2728 34.609L12 33.8002L22 31.3059L12.5455 27.1939L22.8109 28.0928L15.1993 21.1233L24.6175 25.318L19.6736 16.2461L27.2242 23.2822L25.4838 13.0911L30.3484 22.206L32 12L33.6516 22.206L38.5162 13.0911L36.7758 23.2822L44.3264 16.2461L39.3825 25.318L48.8007 21.1233L41.1891 28.0928L51.4545 27.1939L42 31.3059L52 33.8002L41.7272 34.609L50.3782 40.2264L40.4004 37.6444L46.7649 45.776L38.1632 40.0829L41.5516 49.8476L35.2581 41.6604L35.3032 52L32 42.206Z" fill="url(#paint4_linear)"/>
</g>
<g filter="url(#filter2_d)">
<path fill-rule="evenodd" clip-rule="evenodd" d="M32.2222 20L40.3333 28.8073H24.1111L32.2222 20Z" fill="url(#paint5_linear)"/>
<path fill-rule="evenodd" clip-rule="evenodd" d="M32.2222 44L40.3333 28.8073H24.1111L32.2222 44Z" fill="url(#paint6_linear)"/>
<path fill-rule="evenodd" clip-rule="evenodd" d="M32.1111 44L45 28.8073H40.2448L32.1111 44Z" fill="url(#paint7_linear)"/>
<path fill-rule="evenodd" clip-rule="evenodd" d="M32.1111 44L19 28.8073H23.9947L32.1111 44Z" fill="url(#paint8_linear)"/>
<path fill-rule="evenodd" clip-rule="evenodd" d="M25 21.1009L19 28.8073H24.0821L25 21.1009Z" fill="url(#paint9_linear)"/>
<path fill-rule="evenodd" clip-rule="evenodd" d="M39.6667 21.1009L45 28.8073H40.3357L39.6667 21.1009Z" fill="url(#paint10_linear)"/>
<path fill-rule="evenodd" clip-rule="evenodd" d="M24.8027 21.1769L32.111 20.2202L23.8888 28.8073L24.8027 21.1769Z" fill="#EFEFEF"/>
<path fill-rule="evenodd" clip-rule="evenodd" d="M39.6438 21.1769L32.111 20.2202L40.3333 28.8073L39.6438 21.1769Z" fill="url(#paint11_linear)"/>
<path fill-rule="evenodd" clip-rule="evenodd" d="M19.4445 28.8164L23.8835 28.6555L24.8864 21.48L24.1667 28.5341L31.2732 21.1009L24.3471 28.6555L33.2222 28.8164L24.3471 28.9502L29.8878 39.8165L23.8835 28.9502L19.4445 28.8164Z" fill="white"/>
<path fill-rule="evenodd" clip-rule="evenodd" d="M45 28.7617L40.4875 28.6243L39.6105 21.3211L40.2025 28.5034L33.3635 21.4508L40.021 28.6243L31.2222 28.632L40.021 28.9181L34.4123 39.5963L40.4875 28.9181L45 28.7617Z" fill="white"/>
</g>
<defs>
<filter id="filter0_i" x="10" y="10" width="44" height="44" filterUnits="userSpaceOnUse" color-interpolation-filters="sRGB">
<feFlood flood-opacity="0" result="BackgroundImageFix"/>
<feBlend mode="normal" in="SourceGraphic" in2="BackgroundImageFix" result="shape"/>
<feColorMatrix in="SourceAlpha" type="matrix" values="0 0 0 0 0 0 0 0 0 0 0 0 0 0 0 0 0 0 127 0" result="hardAlpha"/>
<feOffset/>
<feGaussianBlur stdDeviation="2"/>
<feComposite in2="hardAlpha" operator="arithmetic" k2="-1" k3="1"/>
<feColorMatrix type="matrix" values="0 0 0 0 0.583333 0 0 0 0 0.583333 0 0 0 0 0.583333 0 0 0 1 0"/>
<feBlend mode="normal" in2="shape" result="effect1_innerShadow"/>
</filter>
<filter id="filter1_i" x="12" y="12" width="40" height="41" filterUnits="userSpaceOnUse" color-interpolation-filters="sRGB">
<feFlood flood-opacity="0" result="BackgroundImageFix"/>
<feBlend mode="normal" in="SourceGraphic" in2="BackgroundImageFix" result="shape"/>
<feColorMatrix in="SourceAlpha" type="matrix" values="0 0 0 0 0 0 0 0 0 0 0 0 0 0 0 0 0 0 127 0" result="hardAlpha"/>
<feOffset dy="1"/>
<feGaussianBlur stdDeviation="1.5"/>
<feComposite in2="hardAlpha" operator="arithmetic" k2="-1" k3="1"/>
<feColorMatrix type="matrix" values="0 0 0 0 0.716667 0 0 0 0 0.716667 0 0 0 0 0.716667 0 0 0 1 0"/>
<feBlend mode="normal" in2="shape" result="effect1_innerShadow"/>
</filter>
<filter id="filter2_d" x="15" y="18" width="34" height="32" filterUnits="userSpaceOnUse" color-interpolation-filters="sRGB">
<feFlood flood-opacity="0" result="BackgroundImageFix"/>
<feColorMatrix in="SourceAlpha" type="matrix" values="0 0 0 0 0 0 0 0 0 0 0 0 0 0 0 0 0 0 127 0"/>
<feOffset dy="2"/>
<feGaussianBlur stdDeviation="2"/>
<feColorMatrix type="matrix" values="0 0 0 0 0.366667 0 0 0 0 0.366667 0 0 0 0 0.366667 0 0 0 0.55 0"/>
<feBlend mode="normal" in2="BackgroundImageFix" result="effect1_dropShadow"/>
<feBlend mode="normal" in="SourceGraphic" in2="effect1_dropShadow" result="shape"/>
</filter>
<linearGradient id="paint0_linear" x1="38.5" y1="67" x2="38.5" y2="4" gradientUnits="userSpaceOnUse">
<stop offset="0.162051" stop-color="#C8C8C8"/>
<stop offset="0.395609" stop-color="#E6E6E6"/>
<stop offset="0.724546" stop-color="#E0E0E0"/>
<stop offset="0.869208" stop-color="#ECECEC"/>
</linearGradient>
<linearGradient id="paint1_linear" x1="32" y1="6" x2="32" y2="58" gradientUnits="userSpaceOnUse">
<stop stop-color="#BEBBB6"/>
<stop offset="0.419091" stop-color="#D3D3D3"/>
<stop offset="1" stop-color="white"/>
</linearGradient>
<linearGradient id="paint2_linear" x1="6" y1="6" x2="6" y2="58" gradientUnits="userSpaceOnUse">
<stop stop-color="white"/>
<stop offset="1" stop-color="#FAFEFF"/>
</linearGradient>
<linearGradient id="paint3_linear" x1="30.0771" y1="10" x2="32" y2="54" gradientUnits="userSpaceOnUse">
<stop stop-color="white"/>
<stop offset="0.535966" stop-color="#F3F3F3"/>
<stop offset="1" stop-color="#CDCDCD"/>
</linearGradient>
<linearGradient id="paint4_linear" x1="30.2519" y1="12" x2="32" y2="52" gradientUnits="userSpaceOnUse">
<stop stop-color="#EEEEEE"/>
<stop offset="0.791835" stop-color="#C7C7C7"/>
<stop offset="1" stop-color="#D2D2D2"/>
</linearGradient>
<linearGradient id="paint5_linear" x1="24.1111" y1="20" x2="24.1111" y2="28.8073" gradientUnits="userSpaceOnUse">
<stop stop-color="white"/>
<stop offset="1" stop-color="#F4F4F4"/>
</linearGradient>
<linearGradient id="paint6_linear" x1="24.1111" y1="44" x2="24.1111" y2="28.8073" gradientUnits="userSpaceOnUse">
<stop stop-color="#F2F2F2"/>
<stop offset="1" stop-color="#D3D3D3"/>
</linearGradient>
<linearGradient id="paint7_linear" x1="28.0524" y1="39.6941" x2="36.4182" y2="26.0966" gradientUnits="userSpaceOnUse">
<stop stop-color="#CACACA"/>
<stop offset="1" stop-color="#CCCCCC"/>
</linearGradient>
<linearGradient id="paint8_linear" x1="32.1111" y1="44" x2="32.1111" y2="28.8073" gradientUnits="userSpaceOnUse">
<stop stop-color="#DEDEDE"/>
<stop offset="1" stop-color="#BEBEBE"/>
</linearGradient>
<linearGradient id="paint9_linear" x1="24.196" y1="31.097" x2="29.1339" y2="25.1418" gradientUnits="userSpaceOnUse">
<stop stop-color="#F0F0F0"/>
<stop offset="1" stop-color="#D8D8D8"/>
</linearGradient>
<linearGradient id="paint10_linear" x1="41.2597" y1="31.1586" x2="36.3718" y2="26.6346" gradientUnits="userSpaceOnUse">
<stop stop-color="#DFDFDF"/>
<stop offset="1" stop-color="#D1D1D1"/>
</linearGradient>
<linearGradient id="paint11_linear" x1="40.0132" y1="20.0402" x2="41.7786" y2="27.9273" gradientUnits="userSpaceOnUse">
<stop stop-color="#F7F7F7"/>
<stop offset="1" stop-color="#DFDFDF"/>
</linearGradient>
</defs>
</svg>