<svg width="24" height="24" viewBox="0 0 24 24" xmlns="http://www.w3.org/2000/svg">
    <g fill="none" fill-rule="evenodd">
        <path d="M0 0h24v24H0z"/>
        <g transform="translate(2 2)" fill-rule="nonzero">
            <circle fill="#542ac8" cx="10" cy="10" r="10"/>
            <path d="M4.527 9.894c2.915-1.27 4.859-2.107 5.831-2.512 2.777-1.155 3.355-1.355 3.73-1.362.083-.001.268.02.388.116a.421.421 0 0 1 .142.271c.014.078.03.255.017.394-.15 1.581-.801 5.418-1.133 7.19-.14.749-.416 1-.683 1.025-.58.053-1.022-.384-1.584-.753-.88-.577-1.378-.936-2.232-1.499-.987-.65-.347-1.008.215-1.593.148-.153 2.706-2.48 2.756-2.691.006-.026.012-.125-.047-.177-.058-.052-.144-.034-.207-.02-.088.02-1.494.95-4.218 2.788-.399.274-.76.408-1.084.4-.357-.007-1.044-.201-1.555-.367-.626-.204-1.124-.311-1.08-.657.022-.18.27-.364.744-.553z" fill="#FFF"/>
        </g>
    </g>
</svg>
