<svg width="24" height="24" viewBox="0 0 24 24" xmlns="http://www.w3.org/2000/svg">
    <g fill-rule="nonzero" fill="none">
        <path d="M21.492 7.18a2.494 2.494 0 0 0-1.754-1.754C18.18 5 11.95 5 11.95 5s-6.23 0-7.787.41A2.545 2.545 0 0 0 2.41 7.18C2 8.738 2 11.967 2 11.967s0 3.246.41 4.787c.23.853.901 1.525 1.754 1.754 1.574.426 7.787.426 7.787.426s6.23 0 7.787-.41a2.494 2.494 0 0 0 1.754-1.754c.41-1.557.41-4.786.41-4.786s.016-3.246-.41-4.804z" fill="#542ac8"/>
        <path fill="#FFF" d="M9.967 8.984v5.967l5.18-2.984z"/>
    </g>
</svg>
