<?xml version="1.0" encoding="UTF-8" ?>
<svg
  width="24px"
  height="24px"
  viewBox="0 0 24 24"
  version="1.1"
  xmlns="http://www.w3.org/2000/svg"
  xmlns:xlink="http://www.w3.org/1999/xlink"
  style="background: #FFFFFF;"
>
      <g
    id="Icon-/-Arrow-left"
    stroke="none"
    stroke-width="1"
    fill="transparent"
    fill-rule="evenodd"
  >
          <rect x="0" y="0" width="24" height="24" />
          <polygon id="Canvas" points="0 0 24 0 24 24 0 24" />
          <path
      d="M7.828,11 L19.5,11 C19.7761424,11 20,11.2238576 20,11.5 L20,12.5 C20,12.7761424 19.7761424,13 19.5,13 L7.828,13 L7.828,13 L12.8384466,18.0104466 C13.0337088,18.2057088 13.0337088,18.5222912 12.8384466,18.7175534 L12.1315534,19.4244466 C11.9362912,19.6197088 11.6197088,19.6197088 11.4244466,19.4244466 L4.35355339,12.3535534 C4.15829124,12.1582912 4.15829124,11.8417088 4.35355339,11.6464466 L11.4244466,4.57555339 C11.6197088,4.38029124 11.9362912,4.38029124 12.1315534,4.57555339 L12.8384466,5.28244661 C13.0337088,5.47770876 13.0337088,5.79429124 12.8384466,5.98955339 L7.828,11 L7.828,11 Z"
      id="Shape"
      fill="@fill"
    />
      </g>
</svg>
