<svg
  width="44"
  height="44"
  viewBox="0 0 44 44"
  fill="none"
  xmlns="http://www.w3.org/2000/svg"
>
<g clip-path="url(#clip0_7302_14744)">
<path
      d="M43.337 27.322C40.399 39.108 28.46 46.28 16.674 43.342C4.892 40.402 -2.28 28.464 0.659998 16.68C3.596 4.893 15.533 -2.28 27.317 0.657996C39.103 3.597 46.275 15.536 43.337 27.322Z"
      fill=""
    />
<path
      d="M30.953 19.579C31.327 17.075 29.421 15.729 26.815 14.831L27.66 11.44L25.596 10.926L24.773 14.228C24.23 14.092 23.673 13.965 23.119 13.838L23.948 10.514L21.885 10L21.039 13.39C20.589 13.288 20.149 13.187 19.72 13.08L19.723 13.07L16.876 12.359L16.326 14.564C16.326 14.564 17.858 14.915 17.826 14.937C18.662 15.145 18.813 15.699 18.788 16.137L17.825 20.001C17.883 20.016 17.957 20.037 18.04 20.07L17.821 20.016L16.471 25.428C16.369 25.682 16.11 26.063 15.525 25.918C15.546 25.948 14.025 25.544 14.025 25.544L13 27.907L15.687 28.577C16.187 28.702 16.677 28.834 17.158 28.957L16.304 32.387L18.366 32.902L19.212 29.508C19.776 29.661 20.322 29.802 20.858 29.935L20.014 33.313L22.079 33.827L22.933 30.403C26.453 31.069 29.1 30.801 30.215 27.616C31.112 25.053 30.17 23.574 28.318 22.61C29.667 22.299 30.683 21.412 30.954 19.579H30.953ZM26.236 26.193C25.598 28.756 21.282 27.371 19.882 27.023L21.016 22.479C22.416 22.828 26.903 23.519 26.236 26.193ZM26.875 19.541C26.293 21.873 22.7 20.689 21.535 20.398L22.562 16.277C23.728 16.567 27.481 17.109 26.875 19.541Z"
      fill="white"
    />
</g>
<defs>
<clipPath id="clip0_7302_14744">
<rect width="44" height="44" fill="white" />
</clipPath>
</defs>
</svg>
