<svg
  width="24px"
  height="24px"
  viewBox="0 0 24 24"
  version="1.1"
  xmlns="http://www.w3.org/2000/svg"
  xmlns:xlink="http://www.w3.org/1999/xlink"
>
      <g
    id="Icon-/-Info"
    stroke="none"
    stroke-width="1"
    fill="none"
    fill-rule="evenodd"
  >
          <polygon id="Canvas" points="0 0 24 0 24 24 0 24" />
          <path
      d="M12,22 C6.477,22 2,17.523 2,12 C2,6.477 6.477,2 12,2 C17.523,2 22,6.477 22,12 C22,17.523 17.523,22 12,22 Z M12,20 C16.418278,20 20,16.418278 20,12 C20,7.581722 16.418278,4 12,4 C7.581722,4 4,7.581722 4,12 C4,16.418278 7.581722,20 12,20 Z M11.5,9 L12.5,9 C12.7761424,9 13,8.77614237 13,8.5 L13,7.5 C13,7.22385763 12.7761424,7 12.5,7 L11.5,7 C11.2238576,7 11,7.22385763 11,7.5 L11,8.5 C11,8.77614237 11.2238576,9 11.5,9 Z M11.5,17 L12.5,17 C12.7761424,17 13,16.7761424 13,16.5 L13,11.5 C13,11.2238576 12.7761424,11 12.5,11 L11.5,11 C11.2238576,11 11,11.2238576 11,11.5 L11,16.5 C11,16.7761424 11.2238576,17 11.5,17 Z"
      id="Shape"
      fill="#ccafff"
    />
      </g>
  </svg>
